<?xml version="1.0" standalone="no"?>
<!DOCTYPE svg PUBLIC "-//W3C//DTD SVG 20010904//EN"
 "http://www.w3.org/TR/2001/REC-SVG-20010904/DTD/svg10.dtd">
<svg version="1.0" xmlns="http://www.w3.org/2000/svg"
 width="700.000000pt" height="700.000000pt" viewBox="0 0 700.000000 700.000000"
 preserveAspectRatio="xMidYMid meet">
<metadata>
Created by potrace 1.14, written by Peter Selinger 2001-2017
</metadata>
<g transform="translate(0.000000,700.000000) scale(0.100000,-0.100000)"
fill="#000000" stroke="none">
<path d="M3180 6919 c-785 -72 -1539 -429 -2105 -994 -539 -539 -874 -1217
-980 -1985 -22 -161 -31 -544 -16 -722 30 -346 113 -696 241 -1007 353 -859
1033 -1540 1888 -1890 1077 -441 2330 -296 3274 380 459 329 825 753 1077
1249 186 365 302 755 353 1185 16 143 16 587 0 730 -58 488 -203 933 -438
1341 -283 493 -715 935 -1201 1230 -444 269 -953 437 -1473 484 -134 12 -483
11 -620 -1z m595 -59 c672 -57 1307 -311 1840 -737 142 -113 397 -367 509
-508 605 -758 857 -1715 700 -2665 -105 -637 -391 -1225 -834 -1718 -367 -408
-881 -744 -1410 -924 -1215 -412 -2554 -98 -3460 811 -577 578 -915 1312 -981
2126 -14 179 -7 507 16 675 84 626 310 1165 701 1670 114 148 407 440 554 554
562 434 1148 661 1855 719 95 8 400 6 510 -3z"/>
<path d="M3210 6760 c-919 -87 -1762 -555 -2315 -1285 -346 -457 -560 -979
-642 -1565 -24 -174 -24 -632 0 -812 78 -583 289 -1101 636 -1562 534 -709
1315 -1163 2209 -1283 181 -24 627 -24 807 1 587 80 1101 290 1559 636 728
549 1181 1345 1287 2265 19 160 16 569 -5 730 -109 843 -497 1563 -1136 2108
-480 410 -1055 664 -1700 752 -137 19 -562 28 -700 15z m565 -60 c763 -69
1458 -393 1995 -930 541 -541 865 -1241 931 -2010 14 -166 6 -520 -16 -679
-81 -583 -309 -1119 -676 -1582 -105 -134 -374 -403 -508 -508 -465 -368
-1001 -596 -1586 -676 -167 -23 -500 -31 -677 -16 -1191 101 -2229 852 -2696
1951 -180 424 -262 868 -249 1344 14 493 112 885 332 1331 310 630 809 1131
1438 1446 353 177 752 292 1137 328 135 12 446 13 575 1z"/>
<path d="M3450 6112 c-178 -486 -350 -774 -505 -848 -94 -45 -168 -23 -259 77
l-54 60 -7 -116 c-16 -248 38 -735 136 -1240 10 -55 19 -105 19 -112 0 -7 -65
56 -145 140 -219 229 -459 450 -583 536 l-34 24 9 -49 c19 -113 0 -183 -61
-220 -41 -25 -193 -25 -286 0 -116 32 -312 107 -474 182 -88 41 -161 74 -163
74 -2 0 31 -39 72 -87 240 -278 378 -509 392 -658 14 -155 -74 -236 -288 -265
-46 -6 -85 -13 -87 -14 -1 -2 40 -44 93 -94 274 -262 562 -442 910 -568 50
-18 83 -35 75 -37 -8 -3 -53 -18 -100 -32 -119 -38 -267 -111 -391 -193 -59
-39 -109 -74 -112 -79 -3 -4 38 -6 90 -5 117 5 159 -3 189 -33 62 -62 4 -193
-202 -457 -46 -58 -84 -108 -84 -111 0 -2 48 11 108 28 187 57 339 76 427 54
116 -29 135 -151 49 -321 -30 -59 -23 -60 77 -10 106 53 225 135 370 254 460
379 527 417 722 418 114 0 108 13 77 -156 -86 -477 -301 -903 -627 -1245 l-75
-78 29 -7 c83 -20 140 -70 158 -139 l11 -46 86 89 c144 149 258 316 359 527
154 319 200 603 162 994 l-6 64 79 -5 c239 -17 620 -231 1089 -612 132 -108
128 -106 104 -39 -12 32 -21 86 -22 121 -1 75 17 106 84 140 41 22 52 23 164
19 106 -5 227 -26 355 -63 25 -8 25 -7 7 17 -9 13 -57 83 -106 156 -207 308
-197 443 34 460 l75 6 -58 45 c-123 96 -292 191 -431 242 -51 19 -60 25 -45
31 10 4 73 29 139 55 362 141 637 329 804 549 l53 70 -84 13 c-83 13 -176 48
-211 80 -61 55 -74 168 -32 285 47 134 196 359 368 557 36 41 64 76 63 78 -2
1 -59 -22 -127 -52 -402 -175 -667 -240 -768 -188 -56 28 -73 60 -72 133 0 35
5 79 10 97 5 17 6 32 2 32 -17 0 -169 -105 -251 -173 -47 -39 -183 -170 -303
-291 l-217 -220 6 144 c5 122 13 169 45 295 75 294 105 545 95 793 -3 85 -8
157 -11 162 -3 5 -27 -6 -53 -24 -26 -19 -71 -42 -100 -51 -221 -72 -433 203
-653 845 -23 69 -45 128 -48 132 -4 4 -31 -59 -61 -140z"/>
</g>
</svg>
