<svg xmlns="http://www.w3.org/2000/svg" xmlns:xlink="http://www.w3.org/1999/xlink" width="500" zoomAndPan="magnify" viewBox="0 0 375 374.999991" height="500" preserveAspectRatio="xMidYMid meet" version="1.0"><defs><g/><clipPath id="fe6a296cfd"><path d="M 4.835938 4.835938 L 370.164062 4.835938 L 370.164062 370.164062 L 4.835938 370.164062 Z M 4.835938 4.835938 " clip-rule="nonzero"/></clipPath><clipPath id="815c11c280"><path d="M 187.5 4.835938 C 86.617188 4.835938 4.835938 86.617188 4.835938 187.5 C 4.835938 288.382812 86.617188 370.164062 187.5 370.164062 C 288.382812 370.164062 370.164062 288.382812 370.164062 187.5 C 370.164062 86.617188 288.382812 4.835938 187.5 4.835938 Z M 187.5 4.835938 " clip-rule="nonzero"/></clipPath><clipPath id="cf5619fa43"><path d="M 12.359375 12.359375 L 362.609375 12.359375 L 362.609375 362.609375 L 12.359375 362.609375 Z M 12.359375 12.359375 " clip-rule="nonzero"/></clipPath><clipPath id="a5a5c80deb"><path d="M 3.707031 3.707031 L 371.207031 3.707031 L 371.207031 371.207031 L 3.707031 371.207031 Z M 3.707031 3.707031 " clip-rule="nonzero"/></clipPath><clipPath id="58978d6540"><path d="M 84.179688 63.351562 L 291.179688 63.351562 L 291.179688 296.601562 L 84.179688 296.601562 Z M 84.179688 63.351562 " clip-rule="nonzero"/></clipPath></defs><g clip-path="url(#fe6a296cfd)"><g clip-path="url(#815c11c280)"><path fill="#fffff0" d="M 4.835938 4.835938 L 370.164062 4.835938 L 370.164062 370.164062 L 4.835938 370.164062 Z M 4.835938 4.835938 " fill-opacity="1" fill-rule="nonzero"/></g></g><g clip-path="url(#cf5619fa43)"><path fill="#121111" d="M 187.4375 362.632812 C 90.949219 362.632812 12.359375 284.042969 12.359375 187.4375 C 12.359375 90.832031 90.949219 12.359375 187.4375 12.359375 C 283.925781 12.359375 362.515625 90.949219 362.515625 187.4375 C 362.632812 284.042969 284.042969 362.632812 187.4375 362.632812 Z M 187.4375 15.324219 C 92.492188 15.324219 15.324219 92.492188 15.324219 187.4375 C 15.324219 282.386719 92.609375 359.671875 187.4375 359.671875 C 282.265625 359.671875 359.671875 282.386719 359.671875 187.4375 C 359.671875 92.492188 282.386719 15.324219 187.4375 15.324219 Z M 187.4375 15.324219 " fill-opacity="1" fill-rule="nonzero"/></g><g clip-path="url(#a5a5c80deb)"><path fill="#121111" d="M 187.433594 371.289062 C 86.179688 371.289062 3.707031 288.816406 3.707031 187.433594 C 3.707031 86.054688 86.179688 3.707031 187.433594 3.707031 C 288.691406 3.707031 371.164062 86.179688 371.164062 187.433594 C 371.289062 288.816406 288.816406 371.289062 187.433594 371.289062 Z M 187.433594 6.816406 C 87.796875 6.816406 6.816406 87.796875 6.816406 187.433594 C 6.816406 287.074219 87.921875 368.179688 187.433594 368.179688 C 286.949219 368.179688 368.179688 287.074219 368.179688 187.433594 C 368.179688 87.796875 287.074219 6.816406 187.433594 6.816406 Z M 187.433594 6.816406 " fill-opacity="1" fill-rule="nonzero"/></g><g clip-path="url(#58978d6540)"><path fill="#000000" d="M 188.582031 225.644531 C 191.855469 248.121094 186.820312 266.273438 173.34375 284.894531 C 170.3125 289.070312 167.113281 292.429688 163.402344 296.019531 C 163.386719 291.050781 160.203125 288.917969 155.414062 287.820312 C 175.121094 268.386719 183.242188 246.949219 185.835938 225.644531 L 181.367188 225.644531 C 166.621094 224.191406 150.457031 248.972656 131.488281 255.714844 C 140.515625 238.414062 130.425781 236.070312 107.523438 243.757812 C 124.652344 223.359375 126.320312 215.824219 107.523438 218.542969 C 117.234375 211.214844 126.261719 207.003906 134.742188 205.285156 C 117.082031 199.675781 101.371094 190.230469 88.101562 175.875 C 113.011719 174.96875 106.898438 158.179688 84.21875 132.890625 C 114.375 148.019531 130.277344 149.925781 125.355469 132.566406 C 134.269531 138.574219 145.703125 150.078125 157.742188 162.957031 C 153.105469 139.347656 149.621094 116.984375 151.269531 100.25 C 162.988281 117.875 175.613281 100.042969 187.992188 63.929688 C 198.425781 96.871094 209.632812 115.152344 223.808594 101.855469 C 225.644531 116.515625 223.675781 132.191406 218.621094 148.71875 L 218.300781 161.316406 C 230.054688 148.660156 241.605469 136.703125 250.898438 132.152344 C 245.125 151.210938 265.34375 144.5625 291.179688 132.871094 C 266.722656 160.144531 264.792969 174.535156 286.316406 175.535156 C 277.363281 189.4375 261.574219 197.898438 243.230469 204.300781 C 251.21875 206.585938 259.207031 210.894531 267.195312 217.5625 C 250.671875 216.203125 254.136719 227.003906 267.671875 244.382812 C 247 238.335938 236.453125 239.980469 242.984375 255.714844 C 218.546875 235.316406 201.113281 225.4375 190.4375 225.644531 Z M 188.582031 225.644531 " fill-opacity="1" fill-rule="evenodd"/></g><g fill="#000000" fill-opacity="1"><g transform="translate(98.192294, 85.388741)"><g><path d="M 0.421875 -26.578125 L 4.984375 -21.46875 L 4.1875 -20.75 C 2.75 -21.882812 1.347656 -22.492188 -0.015625 -22.578125 C -1.378906 -22.660156 -2.613281 -22.234375 -3.71875 -21.296875 L 5.78125 -10.6875 C 6.082031 -10.34375 6.335938 -10.070312 6.546875 -9.875 C 6.765625 -9.675781 6.953125 -9.523438 7.109375 -9.421875 C 7.265625 -9.328125 7.394531 -9.269531 7.5 -9.25 C 7.601562 -9.226562 7.707031 -9.222656 7.8125 -9.234375 C 7.914062 -9.242188 8.023438 -9.257812 8.140625 -9.28125 C 8.265625 -9.300781 8.410156 -9.359375 8.578125 -9.453125 C 8.753906 -9.546875 8.960938 -9.679688 9.203125 -9.859375 C 9.441406 -10.046875 9.75 -10.304688 10.125 -10.640625 L 10.90625 -9.765625 L 2.765625 -2.46875 L 1.984375 -3.34375 C 2.347656 -3.664062 2.632812 -3.941406 2.84375 -4.171875 C 3.0625 -4.398438 3.222656 -4.585938 3.328125 -4.734375 C 3.429688 -4.890625 3.5 -5.023438 3.53125 -5.140625 C 3.5625 -5.253906 3.59375 -5.351562 3.625 -5.4375 C 3.65625 -5.5625 3.660156 -5.679688 3.640625 -5.796875 C 3.628906 -5.921875 3.582031 -6.0625 3.5 -6.21875 C 3.414062 -6.382812 3.285156 -6.582031 3.109375 -6.8125 C 2.929688 -7.050781 2.695312 -7.332031 2.40625 -7.65625 L -7.09375 -18.265625 C -8.207031 -17.273438 -8.800781 -16.097656 -8.875 -14.734375 C -8.945312 -13.378906 -8.484375 -11.898438 -7.484375 -10.296875 L -8.296875 -9.578125 L -12.71875 -14.8125 Z M -9.34375 -11.9375 C -9.664062 -12.625 -9.835938 -13.34375 -9.859375 -14.09375 C -9.890625 -14.84375 -9.773438 -15.515625 -9.515625 -16.109375 L -11.359375 -14.453125 Z M 3.234375 -7.734375 C 3.742188 -7.160156 4.054688 -6.707031 4.171875 -6.375 C 4.285156 -6.039062 4.257812 -5.660156 4.09375 -5.234375 C 4.707031 -5.921875 4.953125 -6.476562 4.828125 -6.90625 C 4.804688 -7 4.769531 -7.101562 4.71875 -7.21875 C 4.675781 -7.34375 4.609375 -7.472656 4.515625 -7.609375 C 4.429688 -7.753906 4.300781 -7.929688 4.125 -8.140625 C 3.957031 -8.359375 3.726562 -8.628906 3.4375 -8.953125 L -5.875 -19.359375 L -6.59375 -18.71875 Z M -1.765625 -23.046875 C -1.003906 -23.265625 -0.28125 -23.332031 0.40625 -23.25 C 1.101562 -23.164062 1.8125 -22.9375 2.53125 -22.5625 L 0.296875 -24.890625 Z M -1.765625 -23.046875 "/></g></g></g><g fill="#000000" fill-opacity="1"><g transform="translate(119.424668, 67.59111)"><g><path d="M 13.40625 -18.640625 C 14.039062 -17.460938 14.457031 -16.203125 14.65625 -14.859375 C 14.863281 -13.515625 14.789062 -12.160156 14.4375 -10.796875 C 14.082031 -9.453125 13.503906 -8.285156 12.703125 -7.296875 C 11.910156 -6.316406 10.96875 -5.53125 9.875 -4.9375 C 8.800781 -4.363281 7.628906 -4.015625 6.359375 -3.890625 C 5.097656 -3.773438 3.785156 -3.90625 2.421875 -4.28125 C -0.265625 -5.070312 -2.269531 -6.695312 -3.59375 -9.15625 C -4.21875 -10.320312 -4.609375 -11.546875 -4.765625 -12.828125 C -4.929688 -14.117188 -4.832031 -15.421875 -4.46875 -16.734375 C -3.738281 -19.390625 -2.117188 -21.394531 0.390625 -22.75 C 1.398438 -23.289062 2.519531 -23.644531 3.75 -23.8125 C 4.976562 -23.976562 6.238281 -23.890625 7.53125 -23.546875 C 8.820312 -23.191406 9.953125 -22.601562 10.921875 -21.78125 C 11.898438 -20.957031 12.726562 -19.910156 13.40625 -18.640625 Z M 9.25 -5.96875 C 10.664062 -6.726562 11.296875 -8 11.140625 -9.78125 C 11.054688 -10.675781 10.828125 -11.65625 10.453125 -12.71875 C 10.078125 -13.789062 9.570312 -14.925781 8.9375 -16.125 C 7.519531 -18.75 6.160156 -20.507812 4.859375 -21.40625 C 3.554688 -22.300781 2.242188 -22.390625 0.921875 -21.671875 C -0.378906 -20.984375 -1.035156 -19.75 -1.046875 -17.96875 C -1.054688 -16.195312 -0.3125 -13.914062 1.1875 -11.125 C 3.820312 -6.207031 6.507812 -4.488281 9.25 -5.96875 Z M -2.125 -20.015625 C -2.363281 -19.671875 -2.578125 -19.347656 -2.765625 -19.046875 C -2.960938 -18.742188 -3.140625 -18.4375 -3.296875 -18.125 C -3.546875 -17.601562 -3.734375 -17.050781 -3.859375 -16.46875 C -3.984375 -15.882812 -4.0625 -15.316406 -4.09375 -14.765625 C -4.144531 -13.773438 -4.066406 -12.832031 -3.859375 -11.9375 C -3.648438 -11.039062 -3.335938 -10.207031 -2.921875 -9.4375 C -2.460938 -8.582031 -1.882812 -7.816406 -1.1875 -7.140625 C -0.5 -6.460938 0.238281 -5.925781 1.03125 -5.53125 C 1.414062 -5.34375 1.800781 -5.171875 2.1875 -5.015625 C 2.570312 -4.867188 2.972656 -4.75 3.390625 -4.65625 C 3.816406 -4.5625 4.273438 -4.5 4.765625 -4.46875 C 5.265625 -4.4375 5.820312 -4.4375 6.4375 -4.46875 C 6.019531 -4.519531 5.617188 -4.578125 5.234375 -4.640625 C 4.847656 -4.710938 4.460938 -4.8125 4.078125 -4.9375 C 2.835938 -5.34375 1.6875 -5.960938 0.625 -6.796875 C -0.425781 -7.640625 -1.300781 -8.707031 -2 -10 C -2.84375 -11.5625 -3.273438 -13.253906 -3.296875 -15.078125 C -3.296875 -15.628906 -3.269531 -16.128906 -3.21875 -16.578125 C -3.175781 -17.035156 -3.101562 -17.457031 -3 -17.84375 C -2.894531 -18.238281 -2.765625 -18.601562 -2.609375 -18.9375 C -2.460938 -19.28125 -2.300781 -19.640625 -2.125 -20.015625 Z M 3.109375 -22.703125 C 3.472656 -22.585938 3.847656 -22.457031 4.234375 -22.3125 C 4.628906 -22.175781 5 -21.988281 5.34375 -21.75 C 6.050781 -21.238281 6.726562 -20.601562 7.375 -19.84375 C 8.03125 -19.082031 8.695312 -18.078125 9.375 -16.828125 C 10.207031 -15.273438 10.8125 -13.878906 11.1875 -12.640625 C 11.351562 -12.054688 11.488281 -11.507812 11.59375 -11 C 11.695312 -10.5 11.75 -10.050781 11.75 -9.65625 C 11.726562 -9.3125 11.679688 -8.945312 11.609375 -8.5625 C 11.546875 -8.175781 11.390625 -7.648438 11.140625 -6.984375 C 11.441406 -7.546875 11.675781 -8.054688 11.84375 -8.515625 C 12.007812 -8.972656 12.117188 -9.40625 12.171875 -9.8125 C 12.234375 -10.21875 12.253906 -10.613281 12.234375 -11 C 12.222656 -11.394531 12.191406 -11.8125 12.140625 -12.25 C 12.015625 -13.101562 11.796875 -13.953125 11.484375 -14.796875 C 11.179688 -15.648438 10.851562 -16.40625 10.5 -17.0625 C 10.101562 -17.800781 9.648438 -18.492188 9.140625 -19.140625 C 8.628906 -19.785156 8.082031 -20.359375 7.5 -20.859375 C 7.164062 -21.148438 6.84375 -21.394531 6.53125 -21.59375 C 6.21875 -21.800781 5.890625 -21.976562 5.546875 -22.125 C 5.203125 -22.269531 4.832031 -22.390625 4.4375 -22.484375 C 4.050781 -22.578125 3.609375 -22.648438 3.109375 -22.703125 Z M 3.109375 -22.703125 "/></g></g></g><g fill="#000000" fill-opacity="1"><g transform="translate(147.336011, 53.966082)"><g><path d="M 5.640625 -21.578125 C 6.441406 -21.785156 7.15625 -21.929688 7.78125 -22.015625 C 8.40625 -22.097656 8.953125 -22.132812 9.421875 -22.125 C 9.890625 -22.113281 10.304688 -22.0625 10.671875 -21.96875 C 11.035156 -21.875 11.363281 -21.75 11.65625 -21.59375 C 12.320312 -21.289062 12.851562 -20.867188 13.25 -20.328125 C 13.644531 -19.796875 13.914062 -19.242188 14.0625 -18.671875 C 14.226562 -18.003906 14.25 -17.34375 14.125 -16.6875 C 14 -16.039062 13.6875 -15.421875 13.1875 -14.828125 C 12.6875 -14.242188 12 -13.707031 11.125 -13.21875 C 10.25 -12.726562 9.15625 -12.304688 7.84375 -11.953125 C 9.488281 -12.234375 10.820312 -12.109375 11.84375 -11.578125 C 12.363281 -11.304688 12.828125 -10.921875 13.234375 -10.421875 C 13.648438 -9.929688 14.03125 -9.320312 14.375 -8.59375 C 14.707031 -7.875 15.039062 -7.304688 15.375 -6.890625 C 15.71875 -6.484375 16.101562 -6.335938 16.53125 -6.453125 C 17.207031 -6.617188 17.382812 -7.414062 17.0625 -8.84375 L 18.1875 -9.125 C 18.375 -8.40625 18.460938 -7.816406 18.453125 -7.359375 C 18.441406 -6.910156 18.375 -6.472656 18.25 -6.046875 C 18.050781 -5.410156 17.695312 -4.882812 17.1875 -4.46875 C 16.675781 -4.050781 16.050781 -3.75 15.3125 -3.5625 C 14.125 -3.257812 13.128906 -3.320312 12.328125 -3.75 C 11.535156 -4.1875 10.929688 -4.875 10.515625 -5.8125 C 10.378906 -6.125 10.269531 -6.410156 10.1875 -6.671875 C 10.113281 -6.941406 10.007812 -7.273438 9.875 -7.671875 C 9.644531 -8.460938 9.414062 -9.085938 9.1875 -9.546875 C 8.96875 -10.003906 8.710938 -10.375 8.421875 -10.65625 C 8.117188 -10.9375 7.734375 -11.113281 7.265625 -11.1875 C 6.796875 -11.257812 6.207031 -11.207031 5.5 -11.03125 L 6.78125 -5.96875 C 6.882812 -5.570312 6.976562 -5.242188 7.0625 -4.984375 C 7.144531 -4.734375 7.226562 -4.523438 7.3125 -4.359375 C 7.394531 -4.191406 7.476562 -4.054688 7.5625 -3.953125 C 7.644531 -3.859375 7.75 -3.789062 7.875 -3.75 C 7.976562 -3.6875 8.085938 -3.632812 8.203125 -3.59375 C 8.328125 -3.5625 8.476562 -3.546875 8.65625 -3.546875 C 8.84375 -3.554688 9.078125 -3.582031 9.359375 -3.625 C 9.640625 -3.675781 9.960938 -3.75 10.328125 -3.84375 L 10.609375 -2.703125 L 0.578125 -0.140625 L 0.296875 -1.28125 C 1.023438 -1.46875 1.535156 -1.644531 1.828125 -1.8125 C 2.117188 -1.988281 2.332031 -2.175781 2.46875 -2.375 C 2.539062 -2.445312 2.59375 -2.539062 2.625 -2.65625 C 2.65625 -2.78125 2.671875 -2.929688 2.671875 -3.109375 C 2.671875 -3.285156 2.648438 -3.507812 2.609375 -3.78125 C 2.566406 -4.0625 2.488281 -4.414062 2.375 -4.84375 L -0.40625 -15.796875 C -0.507812 -16.210938 -0.609375 -16.554688 -0.703125 -16.828125 C -0.796875 -17.097656 -0.882812 -17.3125 -0.96875 -17.46875 C -1.0625 -17.625 -1.144531 -17.738281 -1.21875 -17.8125 C -1.300781 -17.882812 -1.394531 -17.953125 -1.5 -18.015625 C -1.71875 -18.117188 -1.992188 -18.175781 -2.328125 -18.1875 C -2.660156 -18.195312 -3.195312 -18.109375 -3.9375 -17.921875 L -4.234375 -19.0625 Z M 8.109375 -12.65625 C 8.523438 -12.851562 8.882812 -13.039062 9.1875 -13.21875 C 9.488281 -13.40625 9.75 -13.609375 9.96875 -13.828125 C 10.632812 -14.515625 11.015625 -15.191406 11.109375 -15.859375 C 11.210938 -16.523438 11.195312 -17.132812 11.0625 -17.6875 C 10.5 -19.894531 8.828125 -20.925781 6.046875 -20.78125 C 6.367188 -20.738281 6.679688 -20.679688 6.984375 -20.609375 C 7.285156 -20.546875 7.546875 -20.460938 7.765625 -20.359375 C 8.085938 -20.191406 8.375 -19.984375 8.625 -19.734375 C 8.882812 -19.484375 9.101562 -19.222656 9.28125 -18.953125 C 9.457031 -18.691406 9.601562 -18.421875 9.71875 -18.140625 C 9.832031 -17.859375 9.914062 -17.609375 9.96875 -17.390625 C 10.09375 -16.898438 10.140625 -16.347656 10.109375 -15.734375 C 10.085938 -15.117188 9.921875 -14.550781 9.609375 -14.03125 C 9.441406 -13.757812 9.226562 -13.515625 8.96875 -13.296875 C 8.707031 -13.085938 8.421875 -12.875 8.109375 -12.65625 Z M 3.21875 -4.3125 C 3.382812 -3.632812 3.425781 -3.128906 3.34375 -2.796875 C 3.269531 -2.460938 3.078125 -2.171875 2.765625 -1.921875 C 3.171875 -2.078125 3.472656 -2.234375 3.671875 -2.390625 C 3.867188 -2.546875 4.019531 -2.707031 4.125 -2.875 C 4.164062 -2.988281 4.195312 -3.097656 4.21875 -3.203125 C 4.238281 -3.316406 4.25 -3.457031 4.25 -3.625 C 4.25 -3.789062 4.226562 -3.988281 4.1875 -4.21875 C 4.15625 -4.457031 4.09375 -4.757812 4 -5.125 L 1.125 -16.4375 C 0.96875 -17.0625 0.828125 -17.5 0.703125 -17.75 C 0.585938 -18 0.453125 -18.1875 0.296875 -18.3125 C 0.140625 -18.457031 -0.0625 -18.554688 -0.3125 -18.609375 C -0.5625 -18.671875 -0.953125 -18.671875 -1.484375 -18.609375 C -0.992188 -18.492188 -0.632812 -18.265625 -0.40625 -17.921875 C -0.3125 -17.773438 -0.210938 -17.5625 -0.109375 -17.28125 C -0.015625 -17 0.101562 -16.570312 0.25 -16 Z M 6.125 -12.421875 C 6.625 -12.546875 6.988281 -12.660156 7.21875 -12.765625 C 7.457031 -12.867188 7.695312 -12.992188 7.9375 -13.140625 C 8.519531 -13.515625 8.953125 -14.050781 9.234375 -14.75 C 9.523438 -15.445312 9.554688 -16.25 9.328125 -17.15625 C 9.054688 -18.238281 8.53125 -19.085938 7.75 -19.703125 C 6.976562 -20.304688 6.132812 -20.488281 5.21875 -20.25 C 4.738281 -20.132812 4.34375 -19.921875 4.03125 -19.609375 C 3.769531 -19.328125 3.644531 -19.007812 3.65625 -18.65625 C 3.675781 -18.300781 3.742188 -17.910156 3.859375 -17.484375 L 5.203125 -12.1875 Z M 14.125 -4.046875 C 13.707031 -4.234375 13.34375 -4.476562 13.03125 -4.78125 C 12.726562 -5.082031 12.476562 -5.507812 12.28125 -6.0625 C 12.113281 -6.5 11.972656 -6.882812 11.859375 -7.21875 C 11.753906 -7.550781 11.601562 -7.976562 11.40625 -8.5 C 11.257812 -8.96875 11.066406 -9.40625 10.828125 -9.8125 C 10.585938 -10.21875 10.34375 -10.53125 10.09375 -10.75 C 9.601562 -11.175781 8.84375 -11.4375 7.8125 -11.53125 C 8.457031 -11.414062 9.003906 -11.046875 9.453125 -10.421875 C 9.867188 -9.804688 10.257812 -8.890625 10.625 -7.671875 C 10.851562 -6.910156 11.070312 -6.320312 11.28125 -5.90625 C 11.5 -5.488281 11.738281 -5.144531 12 -4.875 C 12.53125 -4.34375 13.238281 -4.066406 14.125 -4.046875 Z M 14.125 -4.046875 "/></g></g></g><g fill="#000000" fill-opacity="1"><g transform="translate(176.332214, 47.680056)"><g><path d="M 20.59375 -10.15625 C 20.601562 -8.8125 20.378906 -7.5 19.921875 -6.21875 C 19.472656 -4.9375 18.769531 -3.785156 17.8125 -2.765625 C 16.875 -1.742188 15.820312 -0.984375 14.65625 -0.484375 C 13.488281 0.015625 12.28125 0.269531 11.03125 0.28125 C 9.8125 0.28125 8.617188 0.0351562 7.453125 -0.453125 C 6.285156 -0.941406 5.1875 -1.671875 4.15625 -2.640625 C 2.144531 -4.585938 1.132812 -6.960938 1.125 -9.765625 C 1.125 -11.085938 1.351562 -12.351562 1.8125 -13.5625 C 2.28125 -14.78125 2.976562 -15.882812 3.90625 -16.875 C 5.800781 -18.875 8.175781 -19.878906 11.03125 -19.890625 C 12.175781 -19.898438 13.332031 -19.6875 14.5 -19.25 C 15.664062 -18.820312 16.734375 -18.15625 17.703125 -17.25 C 18.679688 -16.320312 19.40625 -15.265625 19.875 -14.078125 C 20.351562 -12.898438 20.59375 -11.59375 20.59375 -10.15625 Z M 10.984375 -0.921875 C 12.585938 -0.929688 13.734375 -1.753906 14.421875 -3.390625 C 14.773438 -4.222656 15.035156 -5.195312 15.203125 -6.3125 C 15.378906 -7.4375 15.460938 -8.675781 15.453125 -10.03125 C 15.441406 -13.007812 15.070312 -15.203125 14.34375 -16.609375 C 13.613281 -18.015625 12.492188 -18.710938 10.984375 -18.703125 C 9.515625 -18.691406 8.359375 -17.910156 7.515625 -16.359375 C 6.671875 -14.804688 6.253906 -12.445312 6.265625 -9.28125 C 6.296875 -3.695312 7.867188 -0.910156 10.984375 -0.921875 Z M 7.53125 -18.65625 C 7.15625 -18.46875 6.8125 -18.285156 6.5 -18.109375 C 6.1875 -17.941406 5.882812 -17.757812 5.59375 -17.5625 C 5.132812 -17.207031 4.710938 -16.800781 4.328125 -16.34375 C 3.953125 -15.894531 3.617188 -15.429688 3.328125 -14.953125 C 2.804688 -14.109375 2.425781 -13.242188 2.1875 -12.359375 C 1.957031 -11.472656 1.84375 -10.59375 1.84375 -9.71875 C 1.851562 -8.75 2.003906 -7.800781 2.296875 -6.875 C 2.585938 -5.945312 2.992188 -5.125 3.515625 -4.40625 C 3.765625 -4.050781 4.019531 -3.710938 4.28125 -3.390625 C 4.550781 -3.078125 4.851562 -2.78125 5.1875 -2.5 C 5.519531 -2.226562 5.894531 -1.960938 6.3125 -1.703125 C 6.738281 -1.441406 7.234375 -1.179688 7.796875 -0.921875 C 7.453125 -1.160156 7.125 -1.398438 6.8125 -1.640625 C 6.5 -1.878906 6.195312 -2.148438 5.90625 -2.453125 C 5.007812 -3.378906 4.289062 -4.460938 3.75 -5.703125 C 3.21875 -6.953125 2.945312 -8.3125 2.9375 -9.78125 C 2.9375 -11.550781 3.347656 -13.242188 4.171875 -14.859375 C 4.429688 -15.347656 4.6875 -15.78125 4.9375 -16.15625 C 5.1875 -16.53125 5.453125 -16.863281 5.734375 -17.15625 C 6.015625 -17.457031 6.300781 -17.722656 6.59375 -17.953125 C 6.882812 -18.179688 7.195312 -18.414062 7.53125 -18.65625 Z M 13.40625 -18.578125 C 13.675781 -18.304688 13.945312 -18.015625 14.21875 -17.703125 C 14.5 -17.398438 14.734375 -17.0625 14.921875 -16.6875 C 15.316406 -15.90625 15.625 -15.023438 15.84375 -14.046875 C 16.0625 -13.066406 16.171875 -11.863281 16.171875 -10.4375 C 16.179688 -8.675781 16.0625 -7.160156 15.8125 -5.890625 C 15.695312 -5.296875 15.5625 -4.75 15.40625 -4.25 C 15.257812 -3.757812 15.09375 -3.34375 14.90625 -3 C 14.726562 -2.707031 14.519531 -2.40625 14.28125 -2.09375 C 14.039062 -1.789062 13.65625 -1.40625 13.125 -0.9375 C 13.65625 -1.289062 14.097656 -1.628906 14.453125 -1.953125 C 14.804688 -2.273438 15.101562 -2.601562 15.34375 -2.9375 C 15.59375 -3.269531 15.800781 -3.609375 15.96875 -3.953125 C 16.144531 -4.304688 16.3125 -4.691406 16.46875 -5.109375 C 16.757812 -5.929688 16.96875 -6.785156 17.09375 -7.671875 C 17.226562 -8.566406 17.289062 -9.390625 17.28125 -10.140625 C 17.28125 -10.972656 17.207031 -11.796875 17.0625 -12.609375 C 16.914062 -13.421875 16.703125 -14.179688 16.421875 -14.890625 C 16.265625 -15.296875 16.09375 -15.660156 15.90625 -15.984375 C 15.726562 -16.316406 15.519531 -16.628906 15.28125 -16.921875 C 15.050781 -17.210938 14.785156 -17.488281 14.484375 -17.75 C 14.179688 -18.019531 13.820312 -18.296875 13.40625 -18.578125 Z M 13.40625 -18.578125 "/></g></g></g><g fill="#000000" fill-opacity="1"><g transform="translate(207.356587, 48.714519)"><g><path d="M 11.953125 -17.140625 L 18 -1.8125 L 20.203125 -10.671875 C 20.453125 -11.660156 20.429688 -12.457031 20.140625 -13.0625 C 19.847656 -13.675781 19.175781 -14.113281 18.125 -14.375 L 18.40625 -15.515625 L 25.453125 -13.765625 L 25.171875 -12.625 C 24.117188 -12.882812 23.320312 -12.8125 22.78125 -12.40625 C 22.25 -12.007812 21.859375 -11.316406 21.609375 -10.328125 L 17.890625 4.625 L 15.46875 4.015625 L 8.40625 -13.515625 L 5.765625 -2.953125 C 5.515625 -1.960938 5.53125 -1.164062 5.8125 -0.5625 C 6.101562 0.0390625 6.78125 0.476562 7.84375 0.75 L 7.5625 1.890625 L 0.5 0.125 L 0.78125 -1.015625 C 1.832031 -0.753906 2.625 -0.820312 3.15625 -1.21875 C 3.695312 -1.625 4.09375 -2.320312 4.34375 -3.3125 L 7.453125 -15.765625 C 7.285156 -16.210938 7.039062 -16.59375 6.71875 -16.90625 C 6.394531 -17.21875 5.941406 -17.445312 5.359375 -17.59375 C 5.316406 -17.601562 5.21875 -17.628906 5.0625 -17.671875 C 4.90625 -17.710938 4.800781 -17.726562 4.75 -17.71875 L 5.03125 -18.859375 Z M 20.046875 -14.0625 C 20.398438 -13.8125 20.644531 -13.546875 20.78125 -13.265625 C 20.914062 -12.992188 20.992188 -12.691406 21.015625 -12.359375 C 21.035156 -12.035156 21.003906 -11.695312 20.921875 -11.34375 C 20.835938 -10.988281 20.757812 -10.601562 20.6875 -10.1875 C 20.863281 -10.707031 21.015625 -11.144531 21.140625 -11.5 C 21.265625 -11.863281 21.398438 -12.15625 21.546875 -12.375 C 21.753906 -12.675781 21.976562 -12.882812 22.21875 -13 C 22.457031 -13.125 22.765625 -13.222656 23.140625 -13.296875 Z M 7.21875 -17.109375 C 7.445312 -16.941406 7.644531 -16.742188 7.8125 -16.515625 C 7.988281 -16.296875 8.132812 -16.066406 8.25 -15.828125 C 8.375 -15.585938 8.484375 -15.34375 8.578125 -15.09375 C 8.679688 -14.851562 8.773438 -14.628906 8.859375 -14.421875 L 15.828125 3.140625 L 16.96875 3.421875 L 10.140625 -13.890625 C 9.859375 -14.566406 9.617188 -15.085938 9.421875 -15.453125 C 9.234375 -15.816406 9.046875 -16.09375 8.859375 -16.28125 C 8.503906 -16.644531 8.015625 -16.90625 7.390625 -17.0625 Z M 5.703125 0.375 C 5.148438 -0.0507812 4.84375 -0.515625 4.78125 -1.015625 C 4.757812 -1.265625 4.769531 -1.597656 4.8125 -2.015625 C 4.851562 -2.429688 4.945312 -2.925781 5.09375 -3.5 C 4.914062 -3 4.734375 -2.503906 4.546875 -2.015625 C 4.359375 -1.535156 4.109375 -1.160156 3.796875 -0.890625 C 3.617188 -0.734375 3.421875 -0.625 3.203125 -0.5625 C 2.992188 -0.507812 2.765625 -0.460938 2.515625 -0.421875 Z M 5.703125 0.375 "/></g></g></g><g fill="#000000" fill-opacity="1"><g transform="translate(236.9233, 57.412767)"><g><path d="M 25 -8.984375 L 21.84375 -2.90625 L 20.90625 -3.390625 C 21.457031 -5.148438 21.53125 -6.679688 21.125 -7.984375 C 20.71875 -9.296875 19.878906 -10.296875 18.609375 -10.984375 L 12.046875 1.640625 C 11.828125 2.046875 11.660156 2.378906 11.546875 2.640625 C 11.441406 2.910156 11.367188 3.140625 11.328125 3.328125 C 11.296875 3.515625 11.285156 3.660156 11.296875 3.765625 C 11.316406 3.867188 11.347656 3.96875 11.390625 4.0625 C 11.429688 4.15625 11.484375 4.253906 11.546875 4.359375 C 11.617188 4.460938 11.726562 4.578125 11.875 4.703125 C 12.019531 4.828125 12.21875 4.96875 12.46875 5.125 C 12.726562 5.289062 13.082031 5.488281 13.53125 5.71875 L 12.984375 6.765625 L 3.28125 1.703125 L 3.828125 0.65625 C 4.265625 0.882812 4.625 1.054688 4.90625 1.171875 C 5.1875 1.296875 5.414062 1.382812 5.59375 1.4375 C 5.78125 1.488281 5.929688 1.503906 6.046875 1.484375 C 6.160156 1.472656 6.269531 1.46875 6.375 1.46875 C 6.488281 1.46875 6.601562 1.4375 6.71875 1.375 C 6.832031 1.3125 6.945312 1.210938 7.0625 1.078125 C 7.1875 0.941406 7.320312 0.75 7.46875 0.5 C 7.625 0.25 7.804688 -0.0664062 8.015625 -0.453125 L 14.578125 -13.078125 C 13.253906 -13.765625 11.945312 -13.898438 10.65625 -13.484375 C 9.363281 -13.078125 8.148438 -12.128906 7.015625 -10.640625 L 6.046875 -11.140625 L 9.375 -17.125 Z M 7.875 -12.9375 C 8.394531 -13.488281 9.003906 -13.910156 9.703125 -14.203125 C 10.398438 -14.492188 11.070312 -14.617188 11.71875 -14.578125 L 9.515625 -15.71875 Z M 8.375 0.296875 C 8.019531 0.984375 7.707031 1.4375 7.4375 1.65625 C 7.164062 1.882812 6.804688 1.992188 6.359375 1.984375 C 7.210938 2.316406 7.816406 2.351562 8.171875 2.09375 C 8.253906 2.03125 8.335938 1.957031 8.421875 1.875 C 8.515625 1.789062 8.613281 1.679688 8.71875 1.546875 C 8.820312 1.410156 8.941406 1.222656 9.078125 0.984375 C 9.210938 0.742188 9.378906 0.4375 9.578125 0.0625 L 16.03125 -12.328125 L 15.171875 -12.765625 Z M 20.921875 -9.78125 C 21.398438 -9.144531 21.722656 -8.488281 21.890625 -7.8125 C 22.066406 -7.132812 22.101562 -6.390625 22 -5.578125 L 23.375 -8.5 Z M 20.921875 -9.78125 "/></g></g></g><g fill="#000000" fill-opacity="1"><g transform="translate(261.064472, 71.005749)"><g><path d="M 22.171875 5.984375 C 21.285156 6.992188 20.25 7.828125 19.0625 8.484375 C 17.875 9.140625 16.585938 9.539062 15.203125 9.6875 C 13.816406 9.832031 12.519531 9.707031 11.3125 9.3125 C 10.113281 8.925781 9.039062 8.320312 8.09375 7.5 C 7.175781 6.695312 6.441406 5.722656 5.890625 4.578125 C 5.335938 3.441406 4.992188 2.164062 4.859375 0.75 C 4.648438 -2.03125 5.46875 -4.476562 7.3125 -6.59375 C 8.175781 -7.59375 9.179688 -8.394531 10.328125 -9 C 11.472656 -9.601562 12.722656 -9.960938 14.078125 -10.078125 C 16.816406 -10.335938 19.265625 -9.53125 21.421875 -7.65625 C 22.285156 -6.894531 23.015625 -5.96875 23.609375 -4.875 C 24.203125 -3.789062 24.5625 -2.582031 24.6875 -1.25 C 24.8125 0.0820312 24.660156 1.347656 24.234375 2.546875 C 23.804688 3.753906 23.117188 4.898438 22.171875 5.984375 Z M 8.859375 6.5625 C 10.066406 7.613281 11.46875 7.75 13.0625 6.96875 C 13.882812 6.582031 14.726562 6.023438 15.59375 5.296875 C 16.46875 4.566406 17.347656 3.691406 18.234375 2.671875 C 20.191406 0.429688 21.359375 -1.453125 21.734375 -2.984375 C 22.117188 -4.523438 21.742188 -5.796875 20.609375 -6.796875 C 19.492188 -7.753906 18.109375 -7.925781 16.453125 -7.3125 C 14.796875 -6.707031 12.925781 -5.210938 10.84375 -2.828125 C 7.175781 1.378906 6.515625 4.507812 8.859375 6.5625 Z M 17.96875 -9.03125 C 17.5625 -9.144531 17.1875 -9.238281 16.84375 -9.3125 C 16.5 -9.382812 16.148438 -9.441406 15.796875 -9.484375 C 15.222656 -9.523438 14.640625 -9.5 14.046875 -9.40625 C 13.460938 -9.320312 12.90625 -9.195312 12.375 -9.03125 C 11.425781 -8.738281 10.566406 -8.332031 9.796875 -7.8125 C 9.035156 -7.300781 8.367188 -6.71875 7.796875 -6.0625 C 7.160156 -5.332031 6.644531 -4.523438 6.25 -3.640625 C 5.863281 -2.753906 5.628906 -1.867188 5.546875 -0.984375 C 5.492188 -0.554688 5.460938 -0.132812 5.453125 0.28125 C 5.453125 0.695312 5.484375 1.117188 5.546875 1.546875 C 5.617188 1.984375 5.722656 2.429688 5.859375 2.890625 C 6.003906 3.359375 6.203125 3.878906 6.453125 4.453125 C 6.359375 4.046875 6.273438 3.648438 6.203125 3.265625 C 6.128906 2.878906 6.082031 2.476562 6.0625 2.0625 C 6 0.769531 6.175781 -0.515625 6.59375 -1.796875 C 7.007812 -3.085938 7.703125 -4.285156 8.671875 -5.390625 C 9.828125 -6.722656 11.25 -7.726562 12.9375 -8.40625 C 13.457031 -8.59375 13.9375 -8.742188 14.375 -8.859375 C 14.8125 -8.984375 15.234375 -9.0625 15.640625 -9.09375 C 16.046875 -9.132812 16.429688 -9.144531 16.796875 -9.125 C 17.171875 -9.101562 17.5625 -9.070312 17.96875 -9.03125 Z M 22.328125 -5.09375 C 22.359375 -4.71875 22.375 -4.320312 22.375 -3.90625 C 22.382812 -3.488281 22.335938 -3.078125 22.234375 -2.671875 C 22.003906 -1.828125 21.644531 -0.96875 21.15625 -0.09375 C 20.675781 0.78125 19.96875 1.757812 19.03125 2.84375 C 17.875 4.164062 16.785156 5.222656 15.765625 6.015625 C 15.285156 6.378906 14.820312 6.695312 14.375 6.96875 C 13.9375 7.238281 13.539062 7.445312 13.1875 7.59375 C 12.851562 7.6875 12.492188 7.769531 12.109375 7.84375 C 11.722656 7.925781 11.175781 7.96875 10.46875 7.96875 C 11.101562 8.050781 11.660156 8.085938 12.140625 8.078125 C 12.628906 8.066406 13.070312 8.015625 13.46875 7.921875 C 13.875 7.835938 14.253906 7.71875 14.609375 7.5625 C 14.972656 7.414062 15.347656 7.238281 15.734375 7.03125 C 16.503906 6.613281 17.226562 6.113281 17.90625 5.53125 C 18.59375 4.945312 19.179688 4.375 19.671875 3.8125 C 20.222656 3.175781 20.710938 2.503906 21.140625 1.796875 C 21.566406 1.097656 21.90625 0.382812 22.15625 -0.34375 C 22.3125 -0.757812 22.429688 -1.144531 22.515625 -1.5 C 22.597656 -1.863281 22.644531 -2.226562 22.65625 -2.59375 C 22.664062 -2.96875 22.644531 -3.359375 22.59375 -3.765625 C 22.550781 -4.171875 22.460938 -4.613281 22.328125 -5.09375 Z M 22.328125 -5.09375 "/></g></g></g><g fill="#000000" fill-opacity="1"><g transform="translate(74.230163, 293.526025)"><g><path d="M 21.015625 -7.328125 L 20.21875 -6.46875 C 19.65625 -6.96875 19.15625 -7.289062 18.71875 -7.4375 C 18.320312 -7.582031 17.960938 -7.550781 17.640625 -7.34375 C 17.316406 -7.132812 16.863281 -6.710938 16.28125 -6.078125 L 12.90625 -2.359375 L 20.34375 -2.59375 C 20.882812 -2.613281 21.375 -2.660156 21.8125 -2.734375 C 22.257812 -2.816406 22.5625 -2.945312 22.71875 -3.125 C 22.96875 -3.394531 22.96875 -3.695312 22.71875 -4.03125 C 22.46875 -4.363281 22.035156 -4.804688 21.421875 -5.359375 L 22.21875 -6.21875 L 28.578125 -0.453125 L 27.78125 0.40625 C 27.320312 0.0625 26.898438 -0.226562 26.515625 -0.46875 C 26.128906 -0.707031 25.75 -0.875 25.375 -0.96875 C 24.894531 -1.070312 24.414062 -1.128906 23.9375 -1.140625 C 23.457031 -1.160156 22.84375 -1.15625 22.09375 -1.125 L 17.640625 -1 L 15.625 10.171875 C 15.539062 10.628906 15.484375 11.03125 15.453125 11.375 C 15.429688 11.71875 15.460938 11.984375 15.546875 12.171875 C 15.585938 12.328125 15.660156 12.484375 15.765625 12.640625 C 15.878906 12.796875 16.101562 13.023438 16.4375 13.328125 L 16.671875 13.546875 L 15.890625 14.421875 L 8.8125 8 L 9.59375 7.125 C 10.425781 7.851562 10.976562 8.066406 11.25 7.765625 C 11.375 7.628906 11.472656 7.378906 11.546875 7.015625 C 11.617188 6.648438 11.695312 6.253906 11.78125 5.828125 L 13.09375 -0.953125 L 11.625 -0.9375 L 8.671875 2.3125 C 8.484375 2.519531 8.328125 2.703125 8.203125 2.859375 C 8.078125 3.015625 7.972656 3.144531 7.890625 3.25 C 7.804688 3.351562 7.738281 3.445312 7.6875 3.53125 C 7.644531 3.613281 7.597656 3.703125 7.546875 3.796875 C 7.367188 4.128906 7.367188 4.488281 7.546875 4.875 C 7.734375 5.269531 8.101562 5.734375 8.65625 6.265625 L 7.875 7.140625 L 0.4375 0.40625 L 1.21875 -0.46875 C 1.769531 0.03125 2.203125 0.359375 2.515625 0.515625 C 2.835938 0.671875 3.117188 0.753906 3.359375 0.765625 C 3.453125 0.753906 3.550781 0.738281 3.65625 0.71875 C 3.757812 0.707031 3.882812 0.648438 4.03125 0.546875 C 4.1875 0.441406 4.367188 0.296875 4.578125 0.109375 C 4.785156 -0.078125 5.046875 -0.34375 5.359375 -0.6875 L 12.96875 -9.078125 C 13.257812 -9.390625 13.488281 -9.660156 13.65625 -9.890625 C 13.820312 -10.117188 13.945312 -10.3125 14.03125 -10.46875 C 14.125 -10.625 14.179688 -10.757812 14.203125 -10.875 C 14.234375 -11 14.238281 -11.109375 14.21875 -11.203125 C 14.1875 -11.441406 14.070312 -11.710938 13.875 -12.015625 C 13.6875 -12.316406 13.320312 -12.710938 12.78125 -13.203125 L 13.578125 -14.0625 Z M 23.390625 -3.953125 C 23.503906 -3.703125 23.5625 -3.476562 23.5625 -3.28125 C 23.5625 -3.082031 23.484375 -2.894531 23.328125 -2.71875 C 23.203125 -2.59375 23.046875 -2.488281 22.859375 -2.40625 C 22.679688 -2.332031 22.421875 -2.257812 22.078125 -2.1875 C 23.046875 -2.207031 23.773438 -2.191406 24.265625 -2.140625 C 24.640625 -2.085938 24.925781 -2.023438 25.125 -1.953125 C 25.320312 -1.878906 25.617188 -1.753906 26.015625 -1.578125 Z M 5.390625 0.28125 C 4.910156 0.789062 4.507812 1.109375 4.1875 1.234375 C 3.875 1.367188 3.515625 1.367188 3.109375 1.234375 C 3.484375 1.503906 3.785156 1.675781 4.015625 1.75 C 4.253906 1.832031 4.476562 1.859375 4.6875 1.828125 C 4.800781 1.816406 4.90625 1.796875 5 1.765625 C 5.101562 1.734375 5.226562 1.660156 5.375 1.546875 C 5.53125 1.441406 5.707031 1.289062 5.90625 1.09375 C 6.113281 0.894531 6.375 0.625 6.6875 0.28125 L 14.359375 -8.15625 C 14.722656 -8.570312 14.988281 -8.910156 15.15625 -9.171875 C 15.332031 -9.441406 15.429688 -9.675781 15.453125 -9.875 C 15.492188 -10.101562 15.457031 -10.34375 15.34375 -10.59375 C 15.226562 -10.851562 15.015625 -11.164062 14.703125 -11.53125 C 14.835938 -11.257812 14.898438 -11.023438 14.890625 -10.828125 C 14.878906 -10.628906 14.832031 -10.445312 14.75 -10.28125 C 14.601562 -9.957031 14.179688 -9.410156 13.484375 -8.640625 Z M 13.8125 -0.9375 C 13.550781 0.3125 13.285156 1.585938 13.015625 2.890625 C 12.742188 4.191406 12.484375 5.484375 12.234375 6.765625 C 12.179688 7.085938 12.125 7.363281 12.0625 7.59375 C 12 7.832031 11.90625 8.015625 11.78125 8.140625 C 11.71875 8.222656 11.648438 8.28125 11.578125 8.3125 C 11.503906 8.34375 11.390625 8.363281 11.234375 8.375 C 11.585938 8.46875 11.875 8.488281 12.09375 8.4375 C 12.320312 8.394531 12.523438 8.273438 12.703125 8.078125 C 12.898438 7.859375 13.0625 7.535156 13.1875 7.109375 C 13.3125 6.679688 13.398438 6.300781 13.453125 5.96875 L 14.78125 -1 Z M 13.8125 -0.9375 "/></g></g></g><g fill="#000000" fill-opacity="1"><g transform="translate(96.247213, 312.586751)"><g><path d="M 16.640625 -12.703125 L 17.734375 3.75 L 22.53125 -4.03125 C 23.070312 -4.894531 23.296875 -5.660156 23.203125 -6.328125 C 23.109375 -6.992188 22.597656 -7.617188 21.671875 -8.203125 L 22.296875 -9.203125 L 28.5 -5.359375 L 27.875 -4.359375 C 26.945312 -4.929688 26.164062 -5.109375 25.53125 -4.890625 C 24.894531 -4.671875 24.304688 -4.128906 23.765625 -3.265625 L 15.65625 9.875 L 13.53125 8.546875 L 12.140625 -10.328125 L 6.40625 -1.0625 C 5.863281 -0.1875 5.632812 0.582031 5.71875 1.25 C 5.8125 1.914062 6.320312 2.535156 7.25 3.109375 L 6.640625 4.109375 L 0.4375 0.265625 L 1.046875 -0.734375 C 1.972656 -0.148438 2.753906 0.03125 3.390625 -0.1875 C 4.023438 -0.414062 4.613281 -0.96875 5.15625 -1.84375 L 11.921875 -12.78125 C 11.898438 -13.257812 11.78125 -13.695312 11.5625 -14.09375 C 11.34375 -14.488281 10.984375 -14.84375 10.484375 -15.15625 C 10.441406 -15.1875 10.347656 -15.242188 10.203125 -15.328125 C 10.066406 -15.410156 9.976562 -15.453125 9.9375 -15.453125 L 10.5625 -16.453125 Z M 23.421875 -7.3125 C 23.679688 -6.957031 23.832031 -6.625 23.875 -6.3125 C 23.925781 -6.007812 23.90625 -5.703125 23.8125 -5.390625 C 23.726562 -5.085938 23.59375 -4.773438 23.40625 -4.453125 C 23.226562 -4.140625 23.039062 -3.789062 22.84375 -3.40625 C 23.164062 -3.851562 23.441406 -4.226562 23.671875 -4.53125 C 23.910156 -4.84375 24.125 -5.078125 24.3125 -5.234375 C 24.613281 -5.460938 24.898438 -5.597656 25.171875 -5.640625 C 25.453125 -5.679688 25.773438 -5.679688 26.140625 -5.640625 Z M 12.09375 -14.125 C 12.257812 -13.90625 12.394531 -13.660156 12.5 -13.390625 C 12.601562 -13.128906 12.671875 -12.863281 12.703125 -12.59375 C 12.742188 -12.320312 12.769531 -12.054688 12.78125 -11.796875 C 12.800781 -11.535156 12.828125 -11.289062 12.859375 -11.0625 L 14.171875 7.828125 L 15.15625 8.4375 L 13.875 -10.15625 C 13.832031 -10.894531 13.769531 -11.46875 13.6875 -11.875 C 13.613281 -12.28125 13.519531 -12.597656 13.40625 -12.828125 C 13.1875 -13.285156 12.800781 -13.679688 12.25 -14.015625 Z M 5.328125 2.078125 C 4.929688 1.523438 4.785156 0.992188 4.890625 0.484375 C 4.941406 0.234375 5.046875 -0.078125 5.203125 -0.453125 C 5.367188 -0.828125 5.609375 -1.269531 5.921875 -1.78125 C 5.609375 -1.351562 5.285156 -0.9375 4.953125 -0.53125 C 4.628906 -0.125 4.28125 0.148438 3.90625 0.296875 C 3.695312 0.378906 3.472656 0.414062 3.234375 0.40625 C 3.003906 0.40625 2.769531 0.382812 2.53125 0.34375 Z M 5.328125 2.078125 "/></g></g></g><g fill="#000000" fill-opacity="1"><g transform="translate(121.071812, 326.871681)"><g><path d="M 17.796875 -13.640625 L 17.328125 -12.5625 C 16.609375 -12.875 16.070312 -13.050781 15.71875 -13.09375 C 15.363281 -13.132812 15.0625 -13.101562 14.8125 -13 C 14.59375 -12.914062 14.390625 -12.726562 14.203125 -12.4375 C 14.015625 -12.144531 13.78125 -11.664062 13.5 -11 L 9.0625 -0.609375 C 8.875 -0.171875 8.738281 0.175781 8.65625 0.4375 C 8.570312 0.707031 8.515625 0.925781 8.484375 1.09375 C 8.453125 1.269531 8.445312 1.414062 8.46875 1.53125 C 8.488281 1.65625 8.53125 1.769531 8.59375 1.875 C 8.675781 2.0625 8.875 2.269531 9.1875 2.5 C 9.507812 2.738281 9.96875 2.988281 10.5625 3.25 L 10.109375 4.328125 L 0.5625 0.234375 L 1.015625 -0.84375 C 1.671875 -0.5625 2.179688 -0.394531 2.546875 -0.34375 C 2.910156 -0.289062 3.203125 -0.296875 3.421875 -0.359375 C 3.734375 -0.441406 3.988281 -0.648438 4.1875 -0.984375 C 4.382812 -1.328125 4.613281 -1.800781 4.875 -2.40625 L 9.3125 -12.796875 C 9.476562 -13.191406 9.609375 -13.519531 9.703125 -13.78125 C 9.804688 -14.050781 9.867188 -14.269531 9.890625 -14.4375 C 9.921875 -14.601562 9.925781 -14.742188 9.90625 -14.859375 C 9.882812 -14.972656 9.851562 -15.085938 9.8125 -15.203125 C 9.726562 -15.429688 9.53125 -15.660156 9.21875 -15.890625 C 8.914062 -16.117188 8.4375 -16.375 7.78125 -16.65625 L 8.25 -17.734375 Z M 5.1875 -1.453125 C 4.914062 -0.804688 4.648438 -0.378906 4.390625 -0.171875 C 4.140625 0.0234375 3.800781 0.140625 3.375 0.171875 C 3.832031 0.304688 4.1875 0.363281 4.4375 0.34375 C 4.6875 0.332031 4.90625 0.273438 5.09375 0.171875 C 5.195312 0.117188 5.289062 0.0546875 5.375 -0.015625 C 5.457031 -0.0859375 5.550781 -0.195312 5.65625 -0.34375 C 5.757812 -0.488281 5.867188 -0.679688 5.984375 -0.921875 C 6.109375 -1.160156 6.257812 -1.488281 6.4375 -1.90625 L 10.921875 -12.390625 C 11.148438 -12.929688 11.296875 -13.347656 11.359375 -13.640625 C 11.429688 -13.929688 11.445312 -14.175781 11.40625 -14.375 C 11.375 -14.601562 11.257812 -14.816406 11.0625 -15.015625 C 10.875 -15.222656 10.570312 -15.445312 10.15625 -15.6875 C 10.363281 -15.445312 10.492188 -15.234375 10.546875 -15.046875 C 10.609375 -14.867188 10.628906 -14.695312 10.609375 -14.53125 C 10.566406 -14.164062 10.34375 -13.503906 9.9375 -12.546875 Z M 5.1875 -1.453125 "/></g></g></g><g fill="#000000" fill-opacity="1"><g transform="translate(138.298437, 333.977178)"><g><path d="M 23.015625 -14.046875 L 21.1875 -7.25 L 20.0625 -7.546875 C 19.976562 -9.609375 19.507812 -11.238281 18.65625 -12.4375 C 17.800781 -13.644531 16.550781 -14.472656 14.90625 -14.921875 C 14.75 -14.960938 14.566406 -15.003906 14.359375 -15.046875 C 14.148438 -15.097656 13.921875 -15.117188 13.671875 -15.109375 C 13.429688 -15.097656 13.195312 -15.050781 12.96875 -14.96875 C 12.75 -14.894531 12.566406 -14.742188 12.421875 -14.515625 C 12.285156 -14.328125 12.097656 -13.804688 11.859375 -12.953125 L 10.640625 -8.390625 C 11.117188 -8.285156 11.53125 -8.203125 11.875 -8.140625 C 12.21875 -8.078125 12.515625 -8.035156 12.765625 -8.015625 C 13.023438 -7.992188 13.25 -8 13.4375 -8.03125 C 13.632812 -8.070312 13.832031 -8.125 14.03125 -8.1875 C 14.414062 -8.3125 14.769531 -8.554688 15.09375 -8.921875 C 15.425781 -9.285156 15.726562 -9.804688 16 -10.484375 L 17.1875 -10.171875 L 15.125 -2.53125 L 13.9375 -2.84375 C 14.007812 -4.082031 13.800781 -5.019531 13.3125 -5.65625 C 12.832031 -6.289062 12.082031 -6.75 11.0625 -7.03125 L 10.328125 -7.21875 L 8.875 -1.84375 C 8.71875 -1.269531 8.613281 -0.789062 8.5625 -0.40625 C 8.507812 -0.0195312 8.550781 0.296875 8.6875 0.546875 C 8.832031 0.804688 9.082031 1.023438 9.4375 1.203125 C 9.800781 1.390625 10.320312 1.570312 11 1.75 L 11.1875 1.8125 L 10.890625 2.9375 L 0.59375 0.15625 L 0.890625 -0.96875 C 1.242188 -0.875 1.5625 -0.800781 1.84375 -0.75 C 2.125 -0.707031 2.351562 -0.679688 2.53125 -0.671875 C 2.707031 -0.671875 2.863281 -0.6875 3 -0.71875 C 3.132812 -0.75 3.25 -0.789062 3.34375 -0.84375 C 3.445312 -0.894531 3.539062 -0.957031 3.625 -1.03125 C 3.71875 -1.113281 3.804688 -1.238281 3.890625 -1.40625 C 3.972656 -1.570312 4.0625 -1.78125 4.15625 -2.03125 C 4.25 -2.28125 4.359375 -2.625 4.484375 -3.0625 L 7.421875 -13.984375 C 7.535156 -14.429688 7.613281 -14.796875 7.65625 -15.078125 C 7.707031 -15.359375 7.738281 -15.585938 7.75 -15.765625 C 7.757812 -15.941406 7.742188 -16.082031 7.703125 -16.1875 C 7.660156 -16.289062 7.609375 -16.382812 7.546875 -16.46875 C 7.421875 -16.6875 7.191406 -16.878906 6.859375 -17.046875 C 6.535156 -17.222656 6.039062 -17.40625 5.375 -17.59375 L 5.671875 -18.71875 Z M 4.953125 -2.203125 C 4.765625 -1.523438 4.554688 -1.0625 4.328125 -0.8125 C 4.097656 -0.5625 3.773438 -0.390625 3.359375 -0.296875 C 3.921875 -0.222656 4.34375 -0.226562 4.625 -0.3125 C 4.914062 -0.394531 5.117188 -0.515625 5.234375 -0.671875 C 5.316406 -0.742188 5.394531 -0.832031 5.46875 -0.9375 C 5.539062 -1.039062 5.601562 -1.164062 5.65625 -1.3125 C 5.71875 -1.46875 5.785156 -1.664062 5.859375 -1.90625 C 5.929688 -2.144531 6.015625 -2.441406 6.109375 -2.796875 L 9.0625 -13.78125 C 9.226562 -14.375 9.320312 -14.816406 9.34375 -15.109375 C 9.363281 -15.410156 9.34375 -15.648438 9.28125 -15.828125 C 9.207031 -16.054688 9.066406 -16.253906 8.859375 -16.421875 C 8.648438 -16.597656 8.3125 -16.773438 7.84375 -16.953125 C 8.070312 -16.785156 8.222656 -16.625 8.296875 -16.46875 C 8.378906 -16.3125 8.429688 -16.15625 8.453125 -16 C 8.472656 -15.832031 8.457031 -15.585938 8.40625 -15.265625 C 8.351562 -14.941406 8.242188 -14.457031 8.078125 -13.8125 Z M 18.21875 -14.046875 C 18.726562 -13.660156 19.1875 -13.132812 19.59375 -12.46875 C 20.007812 -11.800781 20.285156 -11.082031 20.421875 -10.3125 L 21.203125 -13.234375 Z M 11.65625 -7.5 C 13.363281 -6.988281 14.300781 -6.09375 14.46875 -4.8125 L 15.4375 -8.390625 C 14.96875 -7.898438 14.445312 -7.570312 13.875 -7.40625 C 13.3125 -7.25 12.570312 -7.28125 11.65625 -7.5 Z M 11.65625 -7.5 "/></g></g></g><g fill="#000000" fill-opacity="1"><g transform="translate(163.682676, 340.245293)"><g><path d="M 20.25 -17.765625 L 19.609375 -10.796875 L 18.453125 -10.890625 C 17.941406 -13.179688 17.1875 -14.765625 16.1875 -15.640625 C 15.664062 -16.097656 15.054688 -16.457031 14.359375 -16.71875 C 13.660156 -16.988281 12.925781 -17.160156 12.15625 -17.234375 C 11.144531 -17.328125 10.457031 -17.195312 10.09375 -16.84375 C 10.019531 -16.757812 9.953125 -16.671875 9.890625 -16.578125 C 9.828125 -16.492188 9.765625 -16.375 9.703125 -16.21875 C 9.648438 -16.0625 9.601562 -15.851562 9.5625 -15.59375 C 9.519531 -15.332031 9.484375 -14.988281 9.453125 -14.5625 L 9.03125 -10.109375 L 9.3125 -10.09375 C 10.03125 -10.019531 10.660156 -10.019531 11.203125 -10.09375 C 11.753906 -10.175781 12.222656 -10.34375 12.609375 -10.59375 C 12.992188 -10.84375 13.3125 -11.164062 13.5625 -11.5625 C 13.8125 -11.96875 14 -12.46875 14.125 -13.0625 L 15.359375 -12.953125 L 14.640625 -5.046875 L 13.40625 -5.15625 C 13.300781 -5.625 13.203125 -6.015625 13.109375 -6.328125 C 13.015625 -6.640625 12.914062 -6.898438 12.8125 -7.109375 C 12.707031 -7.316406 12.601562 -7.484375 12.5 -7.609375 C 12.394531 -7.742188 12.269531 -7.867188 12.125 -7.984375 C 11.851562 -8.210938 11.535156 -8.390625 11.171875 -8.515625 C 10.804688 -8.648438 10.269531 -8.753906 9.5625 -8.828125 L 8.921875 -8.875 L 8.40625 -3.328125 C 8.375 -2.929688 8.351562 -2.554688 8.34375 -2.203125 C 8.332031 -1.859375 8.390625 -1.546875 8.515625 -1.265625 C 8.648438 -0.992188 8.878906 -0.765625 9.203125 -0.578125 C 9.523438 -0.398438 10 -0.285156 10.625 -0.234375 C 11.46875 -0.148438 12.285156 -0.179688 13.078125 -0.328125 C 13.867188 -0.484375 14.613281 -0.785156 15.3125 -1.234375 C 15.6875 -1.472656 16.03125 -1.722656 16.34375 -1.984375 C 16.65625 -2.253906 16.941406 -2.570312 17.203125 -2.9375 C 17.472656 -3.300781 17.722656 -3.710938 17.953125 -4.171875 C 18.179688 -4.640625 18.390625 -5.195312 18.578125 -5.84375 L 19.9375 -5.71875 L 18.9375 1.75 L 0.59375 0.0625 L 0.703125 -1.109375 C 1.085938 -1.078125 1.410156 -1.0625 1.671875 -1.0625 C 1.929688 -1.0625 2.15625 -1.070312 2.34375 -1.09375 C 2.53125 -1.125 2.679688 -1.164062 2.796875 -1.21875 C 2.921875 -1.269531 3.035156 -1.332031 3.140625 -1.40625 C 3.234375 -1.476562 3.3125 -1.554688 3.375 -1.640625 C 3.4375 -1.734375 3.492188 -1.863281 3.546875 -2.03125 C 3.609375 -2.195312 3.664062 -2.414062 3.71875 -2.6875 C 3.769531 -2.96875 3.816406 -3.332031 3.859375 -3.78125 L 4.90625 -15.046875 C 4.945312 -15.503906 4.96875 -15.875 4.96875 -16.15625 C 4.96875 -16.4375 4.953125 -16.664062 4.921875 -16.84375 C 4.898438 -17.019531 4.863281 -17.148438 4.8125 -17.234375 C 4.769531 -17.328125 4.707031 -17.414062 4.625 -17.5 C 4.457031 -17.675781 4.207031 -17.828125 3.875 -17.953125 C 3.539062 -18.078125 3.007812 -18.171875 2.28125 -18.234375 L 2.390625 -19.40625 Z M 4.46875 -3.015625 C 4.40625 -2.316406 4.285156 -1.820312 4.109375 -1.53125 C 3.929688 -1.25 3.640625 -1.03125 3.234375 -0.875 C 3.742188 -0.90625 4.125 -0.96875 4.375 -1.0625 C 4.625 -1.164062 4.8125 -1.289062 4.9375 -1.4375 C 5 -1.507812 5.0625 -1.585938 5.125 -1.671875 C 5.1875 -1.765625 5.238281 -1.894531 5.28125 -2.0625 C 5.320312 -2.238281 5.359375 -2.460938 5.390625 -2.734375 C 5.429688 -3.015625 5.472656 -3.375 5.515625 -3.8125 L 6.578125 -15.15625 C 6.628906 -15.726562 6.640625 -16.164062 6.609375 -16.46875 C 6.585938 -16.769531 6.523438 -17.007812 6.421875 -17.1875 C 6.222656 -17.59375 5.691406 -17.878906 4.828125 -18.046875 C 5.285156 -17.785156 5.546875 -17.453125 5.609375 -17.046875 C 5.628906 -16.960938 5.640625 -16.875 5.640625 -16.78125 C 5.648438 -16.6875 5.65625 -16.566406 5.65625 -16.421875 C 5.65625 -16.273438 5.648438 -16.085938 5.640625 -15.859375 C 5.628906 -15.628906 5.609375 -15.34375 5.578125 -15 Z M 15.578125 -16.96875 C 16.304688 -16.550781 16.882812 -16.09375 17.3125 -15.59375 C 17.75 -15.101562 18.097656 -14.523438 18.359375 -13.859375 L 18.625 -16.6875 Z M 10.28125 -9.4375 C 11.269531 -9.269531 12.007812 -9.03125 12.5 -8.71875 C 12.988281 -8.40625 13.351562 -7.929688 13.59375 -7.296875 L 13.9375 -11.03125 C 13.519531 -10.40625 13.03125 -9.960938 12.46875 -9.703125 C 11.90625 -9.453125 11.175781 -9.363281 10.28125 -9.4375 Z M 17.515625 0.4375 L 18.015625 -2.8125 C 17.585938 -2.125 17.035156 -1.523438 16.359375 -1.015625 C 15.679688 -0.503906 14.945312 -0.125 14.15625 0.125 Z M 17.515625 0.4375 "/></g></g></g><g fill="#000000" fill-opacity="1"><g transform="translate(191.148596, 341.871018)"><g/></g></g><g fill="#000000" fill-opacity="1"><g transform="translate(203.590313, 341.410488)"><g><path d="M 10.6875 -20.1875 C 10.820312 -20.207031 10.953125 -20.304688 11.078125 -20.484375 C 11.210938 -20.660156 11.390625 -21.019531 11.609375 -21.5625 L 12.765625 -21.734375 L 13.953125 -15.125 L 12.640625 -14.921875 C 12.253906 -15.804688 11.832031 -16.554688 11.375 -17.171875 C 10.914062 -17.785156 10.367188 -18.300781 9.734375 -18.71875 C 8.460938 -19.5625 7.207031 -19.890625 5.96875 -19.703125 C 5.550781 -19.640625 5.144531 -19.503906 4.75 -19.296875 C 4.363281 -19.085938 4.03125 -18.820312 3.75 -18.5 C 3.21875 -17.832031 3.003906 -17.148438 3.109375 -16.453125 C 3.191406 -15.910156 3.429688 -15.453125 3.828125 -15.078125 C 4.222656 -14.710938 4.753906 -14.441406 5.421875 -14.265625 C 6.078125 -14.097656 6.789062 -13.957031 7.5625 -13.84375 C 8.34375 -13.726562 9.132812 -13.59375 9.9375 -13.4375 C 10.863281 -13.257812 11.613281 -13.054688 12.1875 -12.828125 C 12.769531 -12.597656 13.3125 -12.3125 13.8125 -11.96875 C 14.414062 -11.5625 14.890625 -11.054688 15.234375 -10.453125 C 15.585938 -9.847656 15.816406 -9.21875 15.921875 -8.5625 C 16.035156 -7.851562 15.992188 -7.085938 15.796875 -6.265625 C 15.597656 -5.441406 15.207031 -4.660156 14.625 -3.921875 C 14.0625 -3.171875 13.328125 -2.554688 12.421875 -2.078125 C 11.523438 -1.609375 10.546875 -1.289062 9.484375 -1.125 C 8.847656 -1.03125 8.226562 -1.003906 7.625 -1.046875 C 7.019531 -1.085938 6.429688 -1.175781 5.859375 -1.3125 C 5.285156 -1.445312 4.847656 -1.566406 4.546875 -1.671875 C 4.253906 -1.785156 4 -1.828125 3.78125 -1.796875 C 3.71875 -1.785156 3.625 -1.75 3.5 -1.6875 C 3.375 -1.632812 3.253906 -1.503906 3.140625 -1.296875 C 3.066406 -1.203125 3 -1.082031 2.9375 -0.9375 C 2.882812 -0.800781 2.816406 -0.628906 2.734375 -0.421875 L 1.5 -0.234375 L 0.390625 -7.46875 L 1.625 -7.65625 C 2.269531 -6.082031 3.238281 -4.753906 4.53125 -3.671875 C 5.175781 -3.140625 5.847656 -2.769531 6.546875 -2.5625 C 7.242188 -2.363281 8.03125 -2.332031 8.90625 -2.46875 C 10.039062 -2.632812 10.898438 -3.039062 11.484375 -3.6875 C 12.078125 -4.332031 12.304688 -5.109375 12.171875 -6.015625 C 12.109375 -6.410156 11.914062 -6.804688 11.59375 -7.203125 C 11.28125 -7.609375 10.71875 -7.925781 9.90625 -8.15625 C 9.144531 -8.382812 8.351562 -8.5625 7.53125 -8.6875 C 6.707031 -8.8125 5.929688 -8.945312 5.203125 -9.09375 C 4.285156 -9.28125 3.617188 -9.453125 3.203125 -9.609375 C 2.796875 -9.773438 2.460938 -9.929688 2.203125 -10.078125 C 1.953125 -10.210938 1.691406 -10.375 1.421875 -10.5625 C 1.148438 -10.75 0.894531 -10.984375 0.65625 -11.265625 C 0.414062 -11.546875 0.195312 -11.882812 0 -12.28125 C -0.1875 -12.6875 -0.320312 -13.179688 -0.40625 -13.765625 C -0.539062 -14.609375 -0.5 -15.425781 -0.28125 -16.21875 C -0.0703125 -17.019531 0.300781 -17.769531 0.84375 -18.46875 C 1.988281 -19.832031 3.550781 -20.664062 5.53125 -20.96875 C 6.332031 -21.09375 6.972656 -21.125 7.453125 -21.0625 C 7.929688 -21 8.347656 -20.910156 8.703125 -20.796875 C 9.234375 -20.648438 9.65625 -20.503906 9.96875 -20.359375 C 10.28125 -20.222656 10.519531 -20.164062 10.6875 -20.1875 Z M 12.96875 -6.109375 C 13.0625 -5.523438 13.019531 -5 12.84375 -4.53125 C 12.675781 -4.070312 12.34375 -3.566406 11.84375 -3.015625 C 12.539062 -3.554688 13.03125 -4.128906 13.3125 -4.734375 C 13.59375 -5.335938 13.675781 -6.019531 13.5625 -6.78125 C 13.425781 -7.664062 13.015625 -8.390625 12.328125 -8.953125 C 12.148438 -9.097656 11.9375 -9.226562 11.6875 -9.34375 C 11.4375 -9.46875 11.117188 -9.582031 10.734375 -9.6875 C 10.347656 -9.800781 9.882812 -9.910156 9.34375 -10.015625 C 8.8125 -10.128906 8.175781 -10.253906 7.4375 -10.390625 C 6.738281 -10.523438 6.113281 -10.644531 5.5625 -10.75 C 5.007812 -10.851562 4.53125 -10.972656 4.125 -11.109375 C 3.4375 -11.347656 2.910156 -11.609375 2.546875 -11.890625 C 1.753906 -12.546875 1.269531 -13.453125 1.09375 -14.609375 C 0.9375 -15.617188 1.050781 -16.535156 1.4375 -17.359375 C 1.832031 -18.191406 2.535156 -19.019531 3.546875 -19.84375 C 2.878906 -19.488281 2.347656 -19.117188 1.953125 -18.734375 C 1.566406 -18.347656 1.222656 -17.882812 0.921875 -17.34375 C 0.640625 -16.769531 0.457031 -16.175781 0.375 -15.5625 C 0.289062 -14.957031 0.285156 -14.414062 0.359375 -13.9375 C 0.453125 -13.351562 0.640625 -12.820312 0.921875 -12.34375 C 1.203125 -11.863281 1.578125 -11.441406 2.046875 -11.078125 C 2.265625 -10.921875 2.503906 -10.769531 2.765625 -10.625 C 3.035156 -10.476562 3.359375 -10.335938 3.734375 -10.203125 C 4.171875 -10.046875 4.65625 -9.914062 5.1875 -9.8125 C 5.71875 -9.707031 6.300781 -9.597656 6.9375 -9.484375 C 8.21875 -9.242188 9.222656 -9.035156 9.953125 -8.859375 C 10.691406 -8.679688 11.25 -8.460938 11.625 -8.203125 C 12.382812 -7.703125 12.832031 -7.003906 12.96875 -6.109375 Z M 8.65625 -20.125 C 9.582031 -19.6875 10.34375 -19.195312 10.9375 -18.65625 C 11.53125 -18.113281 12.050781 -17.429688 12.5 -16.609375 L 11.796875 -20.40625 C 11.660156 -20.0625 11.53125 -19.8125 11.40625 -19.65625 C 11.289062 -19.5 11.164062 -19.410156 11.03125 -19.390625 C 10.914062 -19.367188 10.785156 -19.378906 10.640625 -19.421875 C 10.503906 -19.472656 10.34375 -19.539062 10.15625 -19.625 C 9.976562 -19.71875 9.769531 -19.804688 9.53125 -19.890625 C 9.289062 -19.984375 9 -20.0625 8.65625 -20.125 Z M 2.046875 -1.328125 C 2.265625 -1.773438 2.457031 -2.085938 2.625 -2.265625 C 2.789062 -2.441406 2.988281 -2.550781 3.21875 -2.59375 C 3.375 -2.613281 3.546875 -2.601562 3.734375 -2.5625 C 3.921875 -2.53125 4.203125 -2.453125 4.578125 -2.328125 C 3.734375 -2.785156 3.066406 -3.296875 2.578125 -3.859375 C 2.097656 -4.429688 1.679688 -5.160156 1.328125 -6.046875 Z M 2.046875 -1.328125 "/></g></g></g><g fill="#000000" fill-opacity="1"><g transform="translate(228.687175, 337.090169)"><g><path d="M 3.875 -21.953125 L 4.25 -20.84375 C 3.53125 -20.601562 3 -20.320312 2.65625 -20 C 2.34375 -19.71875 2.203125 -19.375 2.234375 -18.96875 C 2.273438 -18.5625 2.4375 -17.945312 2.71875 -17.125 L 4.125 -12.984375 L 10.15625 -15.03125 L 8.71875 -19.265625 C 8.4375 -20.109375 8.191406 -20.679688 7.984375 -20.984375 C 7.578125 -21.585938 6.679688 -21.660156 5.296875 -21.203125 L 4.921875 -22.3125 L 14.484375 -25.5625 L 14.859375 -24.453125 C 14.460938 -24.316406 14.140625 -24.191406 13.890625 -24.078125 C 13.640625 -23.972656 13.441406 -23.867188 13.296875 -23.765625 C 13.148438 -23.671875 13.035156 -23.578125 12.953125 -23.484375 C 12.867188 -23.390625 12.800781 -23.289062 12.75 -23.1875 C 12.613281 -22.988281 12.5625 -22.71875 12.59375 -22.375 C 12.625 -22.039062 12.769531 -21.492188 13.03125 -20.734375 L 16.671875 -10.03125 C 16.804688 -9.632812 16.921875 -9.3125 17.015625 -9.0625 C 17.117188 -8.820312 17.21875 -8.625 17.3125 -8.46875 C 17.40625 -8.3125 17.492188 -8.191406 17.578125 -8.109375 C 17.660156 -8.035156 17.765625 -7.96875 17.890625 -7.90625 C 18.097656 -7.800781 18.375 -7.753906 18.71875 -7.765625 C 19.070312 -7.773438 19.628906 -7.910156 20.390625 -8.171875 L 20.765625 -7.0625 L 11.25 -3.828125 L 10.828125 -4.921875 C 11.335938 -5.085938 11.75 -5.28125 12.0625 -5.5 C 12.289062 -5.65625 12.46875 -5.8125 12.59375 -5.96875 C 12.726562 -6.132812 12.800781 -6.328125 12.8125 -6.546875 C 12.820312 -6.765625 12.785156 -7.039062 12.703125 -7.375 C 12.628906 -7.707031 12.503906 -8.132812 12.328125 -8.65625 L 10.59375 -13.765625 L 4.5625 -11.71875 L 6.328125 -6.515625 C 6.503906 -5.984375 6.644531 -5.597656 6.75 -5.359375 C 6.863281 -5.128906 6.972656 -4.9375 7.078125 -4.78125 C 7.273438 -4.46875 7.585938 -4.296875 8.015625 -4.265625 C 8.453125 -4.234375 9.039062 -4.332031 9.78125 -4.5625 L 10.15625 -3.453125 L 0.578125 -0.203125 L 0.203125 -1.3125 C 0.554688 -1.425781 0.859375 -1.539062 1.109375 -1.65625 C 1.359375 -1.769531 1.5625 -1.875 1.71875 -1.96875 C 1.875 -2.0625 2 -2.160156 2.09375 -2.265625 C 2.1875 -2.367188 2.257812 -2.46875 2.3125 -2.5625 C 2.363281 -2.664062 2.40625 -2.773438 2.4375 -2.890625 C 2.46875 -3.003906 2.472656 -3.144531 2.453125 -3.3125 C 2.429688 -3.488281 2.390625 -3.710938 2.328125 -3.984375 C 2.265625 -4.265625 2.160156 -4.617188 2.015625 -5.046875 L -1.609375 -15.734375 C -1.796875 -16.285156 -1.972656 -16.734375 -2.140625 -17.078125 C -2.304688 -17.421875 -2.515625 -17.664062 -2.765625 -17.8125 C -3.015625 -17.96875 -3.335938 -18.023438 -3.734375 -17.984375 C -4.140625 -17.941406 -4.671875 -17.8125 -5.328125 -17.59375 L -5.703125 -18.703125 Z M 2.609375 -5.40625 C 2.804688 -4.84375 2.953125 -4.378906 3.046875 -4.015625 C 3.140625 -3.660156 3.164062 -3.34375 3.125 -3.0625 C 3.101562 -2.90625 3.066406 -2.757812 3.015625 -2.625 C 2.960938 -2.5 2.832031 -2.332031 2.625 -2.125 C 3.0625 -2.332031 3.382812 -2.539062 3.59375 -2.75 C 3.8125 -2.96875 3.941406 -3.21875 3.984375 -3.5 C 4.023438 -3.78125 4 -4.09375 3.90625 -4.4375 C 3.8125 -4.789062 3.679688 -5.210938 3.515625 -5.703125 L -0.15625 -16.515625 C -0.488281 -17.472656 -0.804688 -18.078125 -1.109375 -18.328125 C -1.296875 -18.472656 -1.519531 -18.554688 -1.78125 -18.578125 C -2.039062 -18.609375 -2.421875 -18.566406 -2.921875 -18.453125 C -2.660156 -18.429688 -2.4375 -18.378906 -2.25 -18.296875 C -2.070312 -18.210938 -1.921875 -18.066406 -1.796875 -17.859375 C -1.710938 -17.710938 -1.609375 -17.523438 -1.484375 -17.296875 C -1.367188 -17.078125 -1.203125 -16.640625 -0.984375 -15.984375 Z M 12.953125 -8.890625 C 12.984375 -8.804688 13.039062 -8.644531 13.125 -8.40625 C 13.207031 -8.175781 13.296875 -7.875 13.390625 -7.5 C 13.617188 -6.738281 13.484375 -6.125 12.984375 -5.65625 C 13.421875 -5.882812 13.738281 -6.09375 13.9375 -6.28125 C 14.144531 -6.46875 14.265625 -6.671875 14.296875 -6.890625 C 14.347656 -7.117188 14.335938 -7.410156 14.265625 -7.765625 C 14.203125 -8.117188 14.054688 -8.632812 13.828125 -9.3125 L 10.25 -19.828125 C 9.9375 -20.765625 9.691406 -21.34375 9.515625 -21.5625 C 9.359375 -21.75 9.117188 -21.898438 8.796875 -22.015625 C 8.484375 -22.140625 8.03125 -22.128906 7.4375 -21.984375 C 7.9375 -21.921875 8.304688 -21.71875 8.546875 -21.375 C 8.679688 -21.195312 8.804688 -20.960938 8.921875 -20.671875 C 9.035156 -20.390625 9.179688 -19.992188 9.359375 -19.484375 Z M 12.953125 -8.890625 "/></g></g></g><g fill="#000000" fill-opacity="1"><g transform="translate(256.721914, 326.809072)"><g><path d="M 13.0625 -18.953125 C 13.71875 -17.773438 14.15625 -16.515625 14.375 -15.171875 C 14.601562 -13.828125 14.550781 -12.476562 14.21875 -11.125 C 13.90625 -9.757812 13.359375 -8.578125 12.578125 -7.578125 C 11.796875 -6.578125 10.863281 -5.769531 9.78125 -5.15625 C 8.71875 -4.550781 7.554688 -4.175781 6.296875 -4.03125 C 5.035156 -3.882812 3.710938 -3.988281 2.328125 -4.34375 C -0.378906 -5.070312 -2.421875 -6.65625 -3.796875 -9.09375 C -4.441406 -10.25 -4.859375 -11.46875 -5.046875 -12.75 C -5.234375 -14.03125 -5.160156 -15.335938 -4.828125 -16.671875 C -4.171875 -19.335938 -2.585938 -21.378906 -0.078125 -22.796875 C 0.910156 -23.347656 2.019531 -23.722656 3.25 -23.921875 C 4.488281 -24.117188 5.753906 -24.0625 7.046875 -23.75 C 8.347656 -23.40625 9.5 -22.832031 10.5 -22.03125 C 11.5 -21.226562 12.351562 -20.203125 13.0625 -18.953125 Z M 9.140625 -6.171875 C 10.535156 -6.960938 11.132812 -8.238281 10.9375 -10 C 10.851562 -10.90625 10.609375 -11.890625 10.203125 -12.953125 C 9.804688 -14.023438 9.273438 -15.148438 8.609375 -16.328125 C 7.140625 -18.921875 5.742188 -20.65625 4.421875 -21.53125 C 3.097656 -22.40625 1.773438 -22.46875 0.453125 -21.71875 C -0.816406 -20.988281 -1.441406 -19.738281 -1.421875 -17.96875 C -1.398438 -16.207031 -0.609375 -13.941406 0.953125 -11.171875 C 3.703125 -6.304688 6.429688 -4.640625 9.140625 -6.171875 Z M -2.53125 -20 C -2.757812 -19.644531 -2.972656 -19.3125 -3.171875 -19 C -3.367188 -18.695312 -3.539062 -18.394531 -3.6875 -18.09375 C -3.925781 -17.5625 -4.097656 -17.003906 -4.203125 -16.421875 C -4.316406 -15.835938 -4.378906 -15.265625 -4.390625 -14.703125 C -4.441406 -13.703125 -4.351562 -12.757812 -4.125 -11.875 C -3.894531 -10.988281 -3.566406 -10.164062 -3.140625 -9.40625 C -2.660156 -8.5625 -2.066406 -7.804688 -1.359375 -7.140625 C -0.648438 -6.472656 0.101562 -5.953125 0.90625 -5.578125 C 1.320312 -5.378906 1.71875 -5.207031 2.09375 -5.0625 C 2.46875 -4.925781 2.867188 -4.816406 3.296875 -4.734375 C 3.734375 -4.660156 4.195312 -4.609375 4.6875 -4.578125 C 5.1875 -4.546875 5.742188 -4.5625 6.359375 -4.625 C 5.953125 -4.664062 5.550781 -4.710938 5.15625 -4.765625 C 4.769531 -4.828125 4.375 -4.921875 3.96875 -5.046875 C 2.71875 -5.410156 1.554688 -6.003906 0.484375 -6.828125 C -0.585938 -7.648438 -1.484375 -8.703125 -2.203125 -9.984375 C -3.078125 -11.523438 -3.546875 -13.210938 -3.609375 -15.046875 C -3.628906 -15.597656 -3.617188 -16.097656 -3.578125 -16.546875 C -3.546875 -16.992188 -3.476562 -17.414062 -3.375 -17.8125 C -3.269531 -18.207031 -3.148438 -18.578125 -3.015625 -18.921875 C -2.878906 -19.265625 -2.71875 -19.625 -2.53125 -20 Z M 2.640625 -22.796875 C 3.015625 -22.691406 3.394531 -22.570312 3.78125 -22.4375 C 4.164062 -22.300781 4.539062 -22.117188 4.90625 -21.890625 C 5.625 -21.398438 6.3125 -20.78125 6.96875 -20.03125 C 7.632812 -19.289062 8.320312 -18.296875 9.03125 -17.046875 C 9.894531 -15.515625 10.539062 -14.128906 10.96875 -12.890625 C 11.144531 -12.304688 11.285156 -11.757812 11.390625 -11.25 C 11.503906 -10.75 11.566406 -10.304688 11.578125 -9.921875 C 11.554688 -9.578125 11.515625 -9.210938 11.453125 -8.828125 C 11.390625 -8.441406 11.242188 -7.910156 11.015625 -7.234375 C 11.304688 -7.796875 11.53125 -8.304688 11.6875 -8.765625 C 11.84375 -9.222656 11.941406 -9.65625 11.984375 -10.0625 C 12.035156 -10.476562 12.050781 -10.878906 12.03125 -11.265625 C 12.007812 -11.660156 11.960938 -12.078125 11.890625 -12.515625 C 11.765625 -13.367188 11.535156 -14.21875 11.203125 -15.0625 C 10.867188 -15.90625 10.519531 -16.65625 10.15625 -17.3125 C 9.738281 -18.039062 9.269531 -18.722656 8.75 -19.359375 C 8.238281 -19.992188 7.679688 -20.554688 7.078125 -21.046875 C 6.742188 -21.328125 6.414062 -21.566406 6.09375 -21.765625 C 5.769531 -21.960938 5.4375 -22.132812 5.09375 -22.28125 C 4.75 -22.425781 4.375 -22.535156 3.96875 -22.609375 C 3.570312 -22.691406 3.128906 -22.753906 2.640625 -22.796875 Z M 2.640625 -22.796875 "/></g></g></g><g fill="#000000" fill-opacity="1"><g transform="translate(282.035758, 311.968137)"><g><path d="M -6.03125 -20.671875 L -5.28125 -19.8125 C -5.863281 -19.3125 -6.21875 -18.90625 -6.34375 -18.59375 C -6.476562 -18.28125 -6.4375 -17.992188 -6.21875 -17.734375 C -6.082031 -17.578125 -5.863281 -17.410156 -5.5625 -17.234375 C -5.269531 -17.054688 -4.988281 -16.875 -4.71875 -16.6875 L 3.484375 -11.375 L 0.234375 -19.4375 C -1.097656 -20.332031 -2.066406 -20.851562 -2.671875 -21 C -2.960938 -21.082031 -3.253906 -21.085938 -3.546875 -21.015625 C -3.835938 -20.953125 -4.15625 -20.785156 -4.5 -20.515625 L -5.25 -21.375 L 1.8125 -27.53125 L 2.5625 -26.671875 C 1.738281 -25.890625 1.289062 -25.335938 1.21875 -25.015625 C 1.125 -24.679688 1.179688 -24.398438 1.390625 -24.171875 C 1.472656 -24.066406 1.585938 -23.972656 1.734375 -23.890625 C 1.878906 -23.804688 2.003906 -23.722656 2.109375 -23.640625 L 2.9375 -23.109375 L 11.015625 -17.9375 L 7.875 -25.578125 C 7.488281 -26.578125 7.210938 -27.21875 7.046875 -27.5 C 6.867188 -27.832031 6.695312 -28.09375 6.53125 -28.28125 C 6.207031 -28.644531 5.828125 -28.785156 5.390625 -28.703125 C 4.960938 -28.617188 4.378906 -28.253906 3.640625 -27.609375 L 2.890625 -28.46875 L 8.109375 -33.015625 L 8.859375 -32.15625 C 8.546875 -31.832031 8.3125 -31.515625 8.15625 -31.203125 C 8.007812 -30.898438 7.9375 -30.566406 7.9375 -30.203125 C 7.9375 -29.847656 8.007812 -29.425781 8.15625 -28.9375 C 8.3125 -28.445312 8.460938 -28.019531 8.609375 -27.65625 L 14.578125 -12.71875 L 12.90625 -11.28125 L 2.3125 -18.109375 L 7.15625 -6.25 L 5.46875 -4.765625 L -7.796875 -13.21875 C -8.503906 -13.65625 -9.054688 -13.96875 -9.453125 -14.15625 C -9.847656 -14.351562 -10.160156 -14.46875 -10.390625 -14.5 C -10.628906 -14.539062 -10.875 -14.515625 -11.125 -14.421875 C -11.382812 -14.328125 -11.703125 -14.148438 -12.078125 -13.890625 L -12.828125 -14.75 Z M 5.03125 -29.140625 C 5.425781 -29.328125 5.769531 -29.390625 6.0625 -29.328125 C 6.363281 -29.265625 6.691406 -29.035156 7.046875 -28.640625 C 7.097656 -28.566406 7.207031 -28.394531 7.375 -28.125 C 7.550781 -27.863281 7.78125 -27.425781 8.0625 -26.8125 C 7.84375 -27.5 7.632812 -28.101562 7.4375 -28.625 C 7.238281 -29.144531 7.132812 -29.625 7.125 -30.0625 C 7.113281 -30.28125 7.125 -30.472656 7.15625 -30.640625 C 7.195312 -30.816406 7.265625 -30.992188 7.359375 -31.171875 Z M 5.15625 -5.71875 L 5.96875 -6.4375 L -7.125 -14.8125 C -7.570312 -15.09375 -8.019531 -15.332031 -8.46875 -15.53125 C -8.914062 -15.738281 -9.332031 -15.796875 -9.71875 -15.703125 C -9.875 -15.671875 -10.035156 -15.613281 -10.203125 -15.53125 C -10.378906 -15.445312 -10.585938 -15.316406 -10.828125 -15.140625 C -10.328125 -15.265625 -9.753906 -15.175781 -9.109375 -14.875 C -8.796875 -14.726562 -8.503906 -14.566406 -8.234375 -14.390625 C -7.972656 -14.222656 -7.722656 -14.070312 -7.484375 -13.9375 Z M -3.21875 -21.625 C -2.664062 -21.71875 -2.097656 -21.597656 -1.515625 -21.265625 C -0.953125 -20.960938 -0.441406 -20.660156 0.015625 -20.359375 L 12.625 -12.234375 L 13.390625 -12.90625 L 1.40625 -20.609375 C 0.757812 -21.003906 0.238281 -21.316406 -0.15625 -21.546875 C -0.5625 -21.785156 -0.910156 -21.960938 -1.203125 -22.078125 C -1.503906 -22.203125 -1.789062 -22.25 -2.0625 -22.21875 C -2.34375 -22.1875 -2.726562 -21.988281 -3.21875 -21.625 Z M -3.21875 -21.625 "/></g></g></g></svg>