<svg xmlns="http://www.w3.org/2000/svg" xmlns:xlink="http://www.w3.org/1999/xlink" width="500" zoomAndPan="magnify" viewBox="0 0 375 374.999991" height="500" preserveAspectRatio="xMidYMid meet" version="1.0"><defs><clipPath id="b98b66314a"><path d="M 4.835938 4.835938 L 370.164062 4.835938 L 370.164062 370.164062 L 4.835938 370.164062 Z M 4.835938 4.835938 " clip-rule="nonzero"/></clipPath><clipPath id="0423f412c8"><path d="M 187.5 4.835938 C 86.617188 4.835938 4.835938 86.617188 4.835938 187.5 C 4.835938 288.382812 86.617188 370.164062 187.5 370.164062 C 288.382812 370.164062 370.164062 288.382812 370.164062 187.5 C 370.164062 86.617188 288.382812 4.835938 187.5 4.835938 Z M 187.5 4.835938 " clip-rule="nonzero"/></clipPath><clipPath id="a2abee1718"><path d="M 12.359375 12.359375 L 362.609375 12.359375 L 362.609375 362.609375 L 12.359375 362.609375 Z M 12.359375 12.359375 " clip-rule="nonzero"/></clipPath><clipPath id="65b579aa72"><path d="M 3.707031 3.707031 L 371.207031 3.707031 L 371.207031 371.207031 L 3.707031 371.207031 Z M 3.707031 3.707031 " clip-rule="nonzero"/></clipPath><clipPath id="6834f51a09"><path d="M 55.566406 39 L 319.566406 39 L 319.566406 336 L 55.566406 336 Z M 55.566406 39 " clip-rule="nonzero"/></clipPath></defs><g clip-path="url(#b98b66314a)"><g clip-path="url(#0423f412c8)"><path fill="#fffff0" d="M 4.835938 4.835938 L 370.164062 4.835938 L 370.164062 370.164062 L 4.835938 370.164062 Z M 4.835938 4.835938 " fill-opacity="1" fill-rule="nonzero"/></g></g><g clip-path="url(#a2abee1718)"><path fill="#121111" d="M 187.4375 362.632812 C 90.949219 362.632812 12.359375 284.042969 12.359375 187.4375 C 12.359375 90.832031 90.949219 12.359375 187.4375 12.359375 C 283.925781 12.359375 362.515625 90.949219 362.515625 187.4375 C 362.632812 284.042969 284.042969 362.632812 187.4375 362.632812 Z M 187.4375 15.324219 C 92.492188 15.324219 15.324219 92.492188 15.324219 187.4375 C 15.324219 282.386719 92.609375 359.671875 187.4375 359.671875 C 282.265625 359.671875 359.671875 282.386719 359.671875 187.4375 C 359.671875 92.492188 282.386719 15.324219 187.4375 15.324219 Z M 187.4375 15.324219 " fill-opacity="1" fill-rule="nonzero"/></g><g clip-path="url(#65b579aa72)"><path fill="#121111" d="M 187.433594 371.289062 C 86.179688 371.289062 3.707031 288.816406 3.707031 187.433594 C 3.707031 86.054688 86.179688 3.707031 187.433594 3.707031 C 288.691406 3.707031 371.164062 86.179688 371.164062 187.433594 C 371.289062 288.816406 288.816406 371.289062 187.433594 371.289062 Z M 187.433594 6.816406 C 87.796875 6.816406 6.816406 87.796875 6.816406 187.433594 C 6.816406 287.074219 87.921875 368.179688 187.433594 368.179688 C 286.949219 368.179688 368.179688 287.074219 368.179688 187.433594 C 368.179688 87.796875 287.074219 6.816406 187.433594 6.816406 Z M 187.433594 6.816406 " fill-opacity="1" fill-rule="nonzero"/></g><g clip-path="url(#6834f51a09)"><path fill="#000000" d="M 188.710938 245.671875 C 192.890625 274.363281 186.46875 297.53125 169.277344 321.304688 C 165.414062 326.632812 161.335938 330.921875 156.601562 335.503906 C 156.578125 329.164062 152.523438 326.4375 146.414062 325.039062 C 171.546875 300.230469 181.902344 272.867188 185.210938 245.671875 L 179.515625 245.671875 C 160.707031 243.8125 140.089844 275.445312 115.898438 284.054688 C 127.414062 261.96875 114.546875 258.980469 85.332031 268.792969 C 107.183594 242.753906 109.308594 233.132812 85.332031 236.605469 C 97.71875 227.25 109.234375 221.875 120.050781 219.679688 C 97.527344 212.519531 77.488281 200.464844 60.5625 182.140625 C 92.335938 180.984375 84.535156 159.550781 55.613281 127.265625 C 94.074219 146.578125 114.351562 149.015625 108.074219 126.855469 C 119.445312 134.523438 134.027344 149.207031 149.382812 165.648438 C 143.46875 135.511719 139.027344 106.964844 141.128906 85.605469 C 156.070312 108.101562 172.175781 85.339844 187.964844 39.242188 C 201.265625 81.289062 215.558594 104.628906 233.640625 87.65625 C 235.984375 106.363281 233.472656 126.375 227.027344 147.472656 L 226.617188 163.550781 C 241.609375 147.398438 256.335938 132.136719 268.191406 126.328125 C 260.828125 150.652344 286.609375 142.167969 319.566406 127.242188 C 288.375 162.058594 285.910156 180.429688 313.359375 181.707031 C 301.941406 199.453125 281.804688 210.253906 258.414062 218.425781 C 268.601562 221.34375 278.789062 226.839844 288.976562 235.351562 C 267.898438 233.617188 272.320312 247.40625 289.582031 269.585938 C 263.214844 261.871094 249.769531 263.96875 258.097656 284.054688 C 226.929688 258.015625 204.695312 245.40625 191.078125 245.671875 Z M 188.710938 245.671875 " fill-opacity="1" fill-rule="evenodd"/></g></svg>